<svg width="23" height="23" viewBox="0 0 23 23" fill="none" xmlns="http://www.w3.org/2000/svg">
	<path d="M4.6001 16.6748V12.8396L9.2093 15.4857C9.90639 15.8861 10.6962 16.0967 11.5001 16.0967C12.304 16.0967 13.0938 15.8861 13.7909 15.4857L18.4001 12.8408V16.6748C18.4002 16.7504 18.3855 16.8253 18.3567 16.8951C18.3279 16.965 18.2856 17.0285 18.2322 17.0819L18.2299 17.0831L18.2276 17.0865L18.2195 17.0935L18.1931 17.1187L18.1011 17.2038C18.0206 17.274 17.9056 17.3729 17.7549 17.489C17.3419 17.8062 16.903 18.0882 16.4428 18.332C14.9208 19.1393 13.2229 19.5581 11.5001 19.551C9.77726 19.5581 8.07937 19.1393 6.5574 18.332C6.09761 18.0881 5.65908 17.8062 5.2464 17.489C5.09465 17.3721 4.94808 17.2485 4.8071 17.1187L4.78065 17.0935C4.72429 17.0391 4.6793 16.9742 4.64831 16.9023C4.61731 16.8304 4.60092 16.7531 4.6001 16.6748Z" fill="#003A9B"/>
	<path d="M21.5613 9.69899L13.218 14.4887C12.6952 14.789 12.1028 14.947 11.4999 14.947C10.897 14.947 10.3046 14.789 9.7818 14.4887L2.2999 10.1935V15.5249C2.2999 15.6774 2.23932 15.8236 2.13149 15.9315C2.02366 16.0393 1.8774 16.0999 1.7249 16.0999C1.5724 16.0999 1.42615 16.0393 1.31832 15.9315C1.21048 15.8236 1.1499 15.6774 1.1499 15.5249V9.19989C1.14984 9.09622 1.17782 8.99446 1.23086 8.90539C1.2839 8.81631 1.36003 8.74324 1.4512 8.69389L9.7818 3.91104C10.3045 3.61046 10.8969 3.45227 11.4999 3.45227C12.1029 3.45227 12.6953 3.61046 13.218 3.91104L21.5613 8.70194C21.6489 8.75233 21.7218 8.82495 21.7724 8.91248C21.8231 9 21.8497 9.09934 21.8497 9.20046C21.8497 9.30159 21.8231 9.40092 21.7724 9.48845C21.7218 9.57598 21.6489 9.6486 21.5613 9.69899Z" fill="#003A9B"/>
</svg>