<svg width="233" height="36" viewBox="0 0 233 36" fill="none" xmlns="http://www.w3.org/2000/svg">
<path d="M53.0803 11.3194C53.2069 11.5724 53.2701 11.8887 53.2701 12.1418C53.2701 12.3949 53.2069 12.7112 53.0803 12.9643C52.9538 13.2173 52.8273 13.4704 52.5742 13.7235C52.3211 13.9133 52.0681 14.1031 51.815 14.2296C51.562 14.3561 51.2456 14.4194 50.9926 14.4194C50.6762 14.4194 50.4232 14.3561 50.1701 14.2929C49.917 14.1663 49.664 14.0398 49.4109 13.85C48.3986 12.8377 47.2598 12.0785 45.9945 11.5724C44.7292 11.0663 43.4639 10.8765 42.1353 10.8765C40.7434 10.8765 39.4148 11.1296 38.2128 11.699C37.0107 12.2051 35.9352 12.9643 34.9862 13.85C34.0372 14.7357 33.3413 15.8113 32.7719 17.0766C32.2658 18.3419 31.9494 19.6705 31.9494 21.0624C31.9494 22.4542 32.2025 23.7195 32.7086 24.9849C33.2148 26.1869 33.9107 27.3257 34.7964 28.2114C35.6821 29.1604 36.7577 29.9196 37.9597 30.4258C39.1618 30.9951 40.5536 31.2482 42.0088 31.2482C43.3373 31.2482 44.6659 30.9951 45.868 30.5523C47.0701 30.1094 48.2088 29.3502 49.2844 28.2747C49.4742 28.0849 49.7272 27.9584 49.9803 27.8318C50.2334 27.7053 50.5497 27.7053 50.8028 27.7053C51.0558 27.7053 51.3722 27.7686 51.6252 27.8318C51.8783 27.9584 52.1313 28.0849 52.3211 28.2747C52.5742 28.4645 52.7007 28.7176 52.8273 29.0339C52.9538 29.287 53.0171 29.6033 53.0171 29.9196C53.0171 30.236 52.9538 30.489 52.8273 30.7421C52.7007 30.9951 52.5742 31.2482 52.3844 31.438C50.9293 32.8931 49.2844 33.9687 47.4496 34.7279C45.6149 35.4238 43.7802 35.8034 41.8822 35.8034C40.5536 35.8034 39.225 35.6136 38.023 35.2972C36.7577 34.9809 35.6189 34.4748 34.5433 33.8421C33.4678 33.2095 32.4556 32.4503 31.5698 31.5013C30.6841 30.6155 29.9249 29.6033 29.2922 28.5278C28.6596 27.4522 28.1535 26.2502 27.8371 25.0481C27.5208 23.7828 27.331 22.5175 27.331 21.1256C27.331 19.8603 27.5208 18.595 27.8371 17.3296C28.1535 16.0643 28.6596 14.9255 29.229 13.85C29.8616 12.7745 30.5576 11.7622 31.4433 10.8132C32.329 9.86423 33.278 9.10504 34.4168 8.40911C35.4923 7.71318 36.6944 7.20705 37.9597 6.82745C39.225 6.44786 40.6169 6.25806 42.0088 6.25806C43.9067 6.25806 45.7415 6.63765 47.5762 7.33358C49.4109 8.02951 50.9926 9.1683 52.4477 10.6234C52.8273 10.8132 52.9538 11.003 53.0803 11.3194Z" fill="#214194"/>
<path d="M55.2314 24.8585C55.2314 23.3401 55.4845 21.9483 56.0538 20.683C56.6232 19.3544 57.3824 18.2156 58.3947 17.2666C59.407 16.2543 60.5457 15.4951 61.8111 14.9257C63.1397 14.3563 64.5315 14.1033 65.9866 14.1033C67.4418 14.1033 68.8336 14.3563 70.1622 14.9257C71.4908 15.4951 72.6296 16.2543 73.5786 17.2033C74.5276 18.1523 75.35 19.2911 75.9194 20.6197C76.4888 21.9483 76.8052 23.3401 76.8052 24.7953V33.0831C76.8052 33.3995 76.7419 33.7158 76.6154 33.9689C76.4888 34.2219 76.3623 34.475 76.1092 34.7281C75.8562 34.9811 75.6664 35.1077 75.35 35.2342C75.0337 35.3607 74.7806 35.424 74.4643 35.424C73.8316 35.424 73.3888 35.2342 72.9459 34.8546C72.5031 34.475 72.3133 33.9689 72.25 33.3995C71.3643 34.0954 70.4153 34.6648 69.3398 35.1077C68.2642 35.5505 67.1887 35.7403 65.9866 35.7403C64.5315 35.7403 63.1397 35.4872 61.8111 34.9179C60.4825 34.3485 59.3437 33.5893 58.3947 32.577C57.3824 31.5647 56.6232 30.426 56.0538 29.1606C55.4845 27.7688 55.2314 26.3769 55.2314 24.8585ZM59.7233 24.8585C59.7233 25.7443 59.9131 26.5034 60.2294 27.3259C60.5457 28.0851 60.9886 28.781 61.558 29.3504C62.1274 29.9198 62.8233 30.3627 63.5825 30.679C64.3417 30.9953 65.1642 31.1851 66.0499 31.1851C66.9356 31.1851 67.7581 30.9953 68.5173 30.679C69.2765 30.3627 69.9724 29.9198 70.5418 29.3504C71.1112 28.781 71.5541 28.1484 71.8704 27.3259C72.1867 26.5034 72.3765 25.7443 72.3765 24.8585C72.3765 23.9728 72.1867 23.1503 71.8704 22.3911C71.5541 21.6319 71.1112 20.9993 70.5418 20.4299C69.9724 19.8605 69.3397 19.4176 68.5173 19.1013C67.7581 18.785 66.9356 18.5952 66.0499 18.5952C65.1642 18.5952 64.3417 18.785 63.5825 19.1013C62.8233 19.4176 62.1274 19.8605 61.558 20.4299C60.9886 20.9993 60.5457 21.6319 60.2294 22.3911C59.9131 23.2136 59.7233 24.0361 59.7233 24.8585Z" fill="#214194"/>
<path d="M85.8523 16.3809C86.8012 15.685 87.8768 15.1156 88.9523 14.6727C90.0911 14.2931 91.2931 14.1033 92.5585 14.1033H92.6217C93.3809 14.1033 93.9503 14.2931 94.3299 14.736C94.7095 15.1788 94.9626 15.685 94.9626 16.3176C94.9626 16.9503 94.7095 17.5197 94.2667 17.8993C93.8238 18.3421 93.2544 18.5319 92.6217 18.5319H92.5585C91.6095 18.5319 90.787 18.7217 89.9646 19.0381C89.1421 19.4177 88.4462 19.8605 87.8135 20.4932C87.1808 21.1259 86.738 21.8218 86.3584 22.6442C85.9788 23.4667 85.8523 24.3524 85.8523 25.3014V33.0832C85.8523 33.7158 85.6625 34.222 85.2196 34.6648C84.7767 35.1077 84.2706 35.2975 83.6379 35.2975C83.3216 35.2975 83.0685 35.2342 82.7522 35.1077C82.4991 34.9812 82.2461 34.8546 82.0563 34.6016C81.8665 34.3485 81.6767 34.1587 81.5502 33.9056C81.4236 33.6526 81.3604 33.3362 81.3604 33.0199V16.3176C81.3604 16.0013 81.4236 15.685 81.5502 15.4319C81.6767 15.1788 81.8032 14.9258 82.0563 14.736C82.3093 14.5462 82.4991 14.3564 82.7522 14.2298C83.0053 14.1033 83.3216 14.04 83.6379 14.04C83.9543 14.04 84.2706 14.1033 84.5237 14.2298C84.7767 14.3564 85.0298 14.4829 85.2196 14.736C85.4094 14.989 85.5992 15.1788 85.6625 15.4319C85.7257 15.685 85.8523 16.0013 85.8523 16.3809Z" fill="#214194"/>
<path d="M100.593 26.9463C100.783 27.579 101.036 28.1484 101.416 28.7178C101.795 29.2872 102.238 29.73 102.744 30.1096C103.25 30.4892 103.82 30.8055 104.452 31.0586C105.085 31.2484 105.718 31.3749 106.414 31.3749C107.363 31.3749 108.185 31.2484 108.818 30.9321C109.451 30.6157 110.02 30.2362 110.463 29.7933C110.842 29.477 111.222 29.2872 111.602 29.2872C111.981 29.2239 112.361 29.2872 112.677 29.4137C112.93 29.477 113.12 29.6035 113.31 29.7933C113.5 29.9831 113.626 30.1729 113.753 30.3627C114.069 30.8055 114.195 31.3117 114.132 31.8178C114.069 32.3872 113.816 32.8933 113.31 33.2729C112.993 33.5893 112.551 33.9056 112.108 34.2219C111.665 34.5383 111.159 34.7913 110.589 34.9811C110.02 35.2342 109.387 35.3607 108.691 35.4872C107.995 35.6138 107.236 35.677 106.35 35.677C104.832 35.677 103.44 35.424 102.112 34.8546C100.783 34.2852 99.6443 33.526 98.6953 32.577C97.683 31.628 96.9238 30.4892 96.3544 29.1606C95.785 27.832 95.4687 26.4402 95.4687 24.9218C95.4687 23.4034 95.785 22.0115 96.3544 20.683C96.9238 19.3544 97.683 18.2156 98.6953 17.2666C99.7075 16.3176 100.846 15.4951 102.112 14.9257C103.44 14.3563 104.832 14.1033 106.35 14.1033C107.806 14.1033 109.197 14.3563 110.526 14.9257C111.855 15.4951 112.993 16.2543 113.942 17.2033C114.955 18.1523 115.714 19.2911 116.283 20.6197C116.853 21.9483 117.169 23.3401 117.169 24.7953C117.169 25.4279 116.979 25.9341 116.536 26.3769C116.093 26.7565 115.587 26.9463 114.955 26.9463H100.593ZM112.614 23.1503C112.424 22.4544 112.171 21.8217 111.791 21.2524C111.412 20.683 110.969 20.1768 110.463 19.734C109.957 19.2911 109.324 18.9748 108.628 18.7217C107.932 18.4686 107.236 18.3421 106.477 18.3421C105.718 18.3421 105.022 18.4686 104.326 18.7217C103.63 18.9748 103.061 19.2911 102.555 19.734C102.048 20.1768 101.606 20.683 101.226 21.2524C100.846 21.8217 100.593 22.4544 100.467 23.1503H112.614Z" fill="#214194"/>
<path d="M124.255 26.9463C124.445 27.579 124.698 28.1484 125.077 28.7178C125.457 29.2872 125.9 29.73 126.406 30.1096C126.912 30.4892 127.481 30.8055 128.114 31.0586C128.747 31.2484 129.379 31.3749 130.075 31.3749C131.024 31.3749 131.847 31.2484 132.479 30.9321C133.112 30.6157 133.681 30.2362 134.124 29.7933C134.504 29.477 134.884 29.2872 135.263 29.2872C135.643 29.2239 136.022 29.2872 136.339 29.4137C136.592 29.477 136.782 29.6035 136.971 29.7933C137.161 29.9831 137.288 30.1729 137.414 30.3627C137.731 30.8055 137.857 31.3117 137.794 31.8178C137.731 32.3872 137.477 32.8933 136.971 33.2729C136.655 33.5893 136.212 33.9056 135.769 34.2219C135.326 34.5383 134.82 34.7913 134.251 34.9811C133.681 35.2342 133.049 35.3607 132.353 35.4872C131.657 35.6138 130.898 35.677 130.012 35.677C128.494 35.677 127.102 35.424 125.773 34.8546C124.445 34.2852 123.306 33.526 122.357 32.577C121.345 31.628 120.585 30.4892 120.016 29.1606C119.447 27.832 119.13 26.4402 119.13 24.9218C119.13 23.4034 119.447 22.0115 120.016 20.683C120.585 19.3544 121.345 18.2156 122.357 17.2666C123.369 16.3176 124.508 15.4951 125.773 14.9257C127.102 14.3563 128.494 14.1033 130.012 14.1033C131.467 14.1033 132.859 14.3563 134.188 14.9257C135.516 15.4951 136.655 16.2543 137.604 17.2033C138.616 18.1523 139.375 19.2911 139.945 20.6197C140.514 21.9483 140.831 23.3401 140.831 24.7953C140.831 25.4279 140.641 25.9341 140.198 26.3769C139.755 26.7565 139.249 26.9463 138.616 26.9463H124.255ZM136.275 23.1503C136.086 22.4544 135.833 21.8217 135.453 21.2524C135.073 20.683 134.63 20.1768 134.124 19.734C133.618 19.2911 132.986 18.9748 132.29 18.7217C131.594 18.4686 130.898 18.3421 130.139 18.3421C129.379 18.3421 128.683 18.4686 127.988 18.7217C127.292 18.9748 126.722 19.2911 126.216 19.734C125.71 20.1768 125.267 20.683 124.887 21.2524C124.508 21.8217 124.255 22.4544 124.128 23.1503H136.275Z" fill="#214194"/>
<path d="M148.739 16.3809C149.688 15.685 150.763 15.1156 151.839 14.6727C152.978 14.2931 154.18 14.1033 155.445 14.1033H155.508C156.268 14.1033 156.837 14.2931 157.217 14.736C157.596 15.1788 157.849 15.685 157.849 16.3176C157.849 16.9503 157.596 17.5197 157.153 17.8993C156.71 18.3421 156.141 18.5319 155.508 18.5319H155.445C154.496 18.5319 153.674 18.7217 152.851 19.0381C152.029 19.4177 151.333 19.8605 150.7 20.4932C150.067 21.1259 149.625 21.8218 149.245 22.6442C148.865 23.4667 148.739 24.3524 148.739 25.3014V33.0832C148.739 33.7158 148.549 34.222 148.106 34.6648C147.663 35.1077 147.157 35.2975 146.525 35.2975C146.208 35.2975 145.955 35.2342 145.639 35.1077C145.386 34.9812 145.133 34.8546 144.943 34.6016C144.753 34.3485 144.563 34.1587 144.437 33.9056C144.31 33.6526 144.247 33.3362 144.247 33.0199V16.3176C144.247 16.0013 144.31 15.685 144.437 15.4319C144.563 15.1788 144.69 14.9258 144.943 14.736C145.196 14.5462 145.386 14.3564 145.639 14.2298C145.892 14.1033 146.208 14.04 146.525 14.04C146.841 14.04 147.157 14.1033 147.41 14.2298C147.663 14.3564 147.916 14.4829 148.106 14.736C148.296 14.989 148.486 15.1788 148.549 15.4319C148.612 15.685 148.739 16.0013 148.739 16.3809Z" fill="#214194"/>
<path d="M171.451 10.8769V33.1466C171.451 33.7792 171.262 34.2854 170.819 34.7282C170.376 35.1711 169.87 35.3609 169.237 35.3609C168.604 35.3609 168.098 35.1711 167.655 34.7282C167.276 34.2854 167.086 33.7792 167.086 33.1466V10.8769H161.076C160.443 10.8769 159.937 10.6871 159.494 10.2442C159.051 9.80135 158.861 9.29522 158.861 8.66256C158.861 8.0299 159.051 7.52377 159.494 7.0809C159.937 6.63804 160.443 6.44824 161.076 6.44824H177.588C178.221 6.44824 178.727 6.63804 179.17 7.0809C179.613 7.52377 179.803 8.0299 179.803 8.66256C179.803 8.97889 179.739 9.29522 179.613 9.54829C179.486 9.80135 179.36 10.0544 179.107 10.2442C178.854 10.434 178.664 10.6238 178.411 10.6871C178.158 10.8136 177.841 10.8769 177.525 10.8769H171.451Z" fill="#5497D1"/>
<path d="M182.776 16.3809C183.725 15.685 184.801 15.1156 185.876 14.6727C187.015 14.2931 188.217 14.1033 189.482 14.1033H189.546C190.305 14.1033 190.874 14.2931 191.254 14.736C191.633 15.1788 191.886 15.685 191.886 16.3176C191.886 16.9503 191.633 17.5197 191.19 17.8993C190.748 18.3421 190.178 18.5319 189.546 18.5319C188.597 18.5319 187.774 18.7217 186.952 19.0381C186.129 19.4177 185.433 19.8605 184.801 20.4932C184.168 21.1259 183.725 21.8218 183.345 22.6442C182.966 23.4667 182.839 24.3524 182.839 25.3014V33.0832C182.839 33.7158 182.65 34.222 182.207 34.6648C181.764 35.1077 181.258 35.2975 180.625 35.2975C180.309 35.2975 180.056 35.2342 179.739 35.1077C179.486 34.9812 179.233 34.8546 179.043 34.6016C178.854 34.3485 178.664 34.1587 178.537 33.9056C178.411 33.6526 178.347 33.3362 178.347 33.0199V16.3176C178.347 16.0013 178.411 15.685 178.537 15.4319C178.664 15.1788 178.79 14.9258 179.043 14.736C179.296 14.5462 179.486 14.3564 179.739 14.2298C179.992 14.1033 180.309 14.04 180.625 14.04C180.941 14.04 181.258 14.1033 181.511 14.2298C181.764 14.3564 182.017 14.4829 182.207 14.736C182.396 14.989 182.586 15.1788 182.65 15.4319C182.713 15.685 182.776 16.0013 182.776 16.3809Z" fill="#5497D1"/>
<path d="M192.519 24.8585C192.519 23.3401 192.772 21.9483 193.341 20.683C193.911 19.3544 194.67 18.2156 195.682 17.2666C196.695 16.2543 197.833 15.4951 199.099 14.9257C200.427 14.3563 201.819 14.1033 203.274 14.1033C204.729 14.1033 206.121 14.3563 207.45 14.9257C208.778 15.4951 209.917 16.2543 210.866 17.2033C211.815 18.1523 212.638 19.2911 213.207 20.6197C213.776 21.9483 214.093 23.3401 214.093 24.7953V33.0831C214.093 33.3995 214.029 33.7158 213.903 33.9689C213.776 34.2219 213.65 34.475 213.397 34.7281C213.144 34.9811 212.954 35.1077 212.638 35.2342C212.321 35.3607 212.068 35.424 211.752 35.424C211.119 35.424 210.676 35.2342 210.234 34.8546C209.791 34.475 209.601 33.9689 209.538 33.3995C208.652 34.0954 207.703 34.6648 206.627 35.1077C205.552 35.5505 204.476 35.7403 203.274 35.7403C201.819 35.7403 200.427 35.4872 199.099 34.9179C197.77 34.3485 196.631 33.5893 195.682 32.577C194.67 31.5647 193.911 30.426 193.341 29.1606C192.772 27.7688 192.519 26.3769 192.519 24.8585ZM197.011 24.8585C197.011 25.7443 197.201 26.5034 197.517 27.3259C197.833 28.0851 198.276 28.781 198.846 29.3504C199.415 29.9198 200.111 30.3627 200.87 30.679C201.629 30.9953 202.452 31.1851 203.337 31.1851C204.223 31.1851 205.046 30.9953 205.805 30.679C206.564 30.3627 207.26 29.9198 207.829 29.3504C208.399 28.781 208.842 28.1484 209.158 27.3259C209.474 26.5034 209.664 25.7443 209.664 24.8585C209.664 23.9728 209.474 23.1503 209.158 22.3911C208.842 21.6319 208.399 20.9993 207.829 20.4299C207.26 19.8605 206.627 19.4176 205.805 19.1013C205.046 18.785 204.223 18.5952 203.337 18.5952C202.452 18.5952 201.629 18.785 200.87 19.1013C200.111 19.4176 199.415 19.8605 198.846 20.4299C198.276 20.9993 197.833 21.6319 197.517 22.3911C197.137 23.2136 197.011 24.0361 197.011 24.8585Z" fill="#5497D1"/>
<path d="M223.077 33.1464C223.077 33.7791 222.887 34.2852 222.444 34.7281C222.001 35.1709 221.495 35.3607 220.862 35.3607C220.546 35.3607 220.293 35.2975 219.977 35.1709C219.66 35.0444 219.47 34.9179 219.281 34.6648C219.091 34.4118 218.901 34.222 218.775 33.9689C218.648 33.7158 218.585 33.3995 218.585 33.0832V16.3176C218.585 16.0013 218.648 15.685 218.775 15.4319C218.901 15.1788 219.091 14.9258 219.281 14.736C219.47 14.5462 219.724 14.3564 219.977 14.2298C220.23 14.1033 220.546 14.04 220.862 14.04C221.179 14.04 221.495 14.1033 221.748 14.2298C222.001 14.3564 222.254 14.4829 222.444 14.736C222.634 14.989 222.824 15.1788 222.887 15.4319C223.013 15.685 223.077 16.0013 223.077 16.3176V33.1464Z" fill="#5497D1"/>
<path d="M232.124 33.2096C232.124 33.8423 231.934 34.3484 231.491 34.7913C231.048 35.2342 230.542 35.424 229.91 35.424C229.277 35.424 228.707 35.2342 228.328 34.7913C227.885 34.3484 227.695 33.8423 227.695 33.2096V8.59908C227.695 7.96642 227.885 7.46029 228.328 7.01743C228.771 6.57456 229.277 6.38477 229.91 6.38477C230.542 6.38477 231.048 6.57456 231.491 7.01743C231.934 7.46029 232.124 7.96642 232.124 8.59908V33.2096Z" fill="#5497D1"/>
<path d="M220.862 11.6988C223.029 11.6988 224.785 9.9426 224.785 7.77626C224.785 5.60992 223.029 3.85376 220.862 3.85376C218.696 3.85376 216.94 5.60992 216.94 7.77626C216.94 9.9426 218.696 11.6988 220.862 11.6988Z" fill="#5497D1"/>
<path d="M220.926 5.68896L221.558 6.95429C221.558 6.95429 221.558 6.95429 221.621 6.95429L223.013 7.14409C223.077 7.14409 223.077 7.20735 223.013 7.20735L222.001 8.21961C222.001 8.21961 222.001 8.21961 222.001 8.28288L222.254 9.67474C222.254 9.738 222.191 9.738 222.191 9.738L220.926 9.04207H220.862L219.597 9.738C219.534 9.738 219.534 9.738 219.534 9.67474L219.787 8.28288V8.21961L218.775 7.20735C218.711 7.20735 218.775 7.14409 218.775 7.14409L220.166 6.95429H220.23L220.862 5.68896C220.799 5.68896 220.862 5.68896 220.926 5.68896Z" fill="white"/>
<path d="M220.862 1.19678V3.85396" stroke="#5497D1" stroke-width="0.998268" stroke-miterlimit="10" stroke-linecap="round"/>
<path d="M4.74497 7.58688V16.0013C4.74497 16.2544 4.6817 16.4442 4.4919 16.5707C4.3021 16.7605 4.1123 16.8237 3.85924 16.8237C3.60617 16.8237 3.41637 16.7605 3.28984 16.5707C3.16331 16.3809 3.03678 16.1911 3.03678 16.0013V7.58688H0.822461C0.569396 7.58688 0.379597 7.52362 0.253065 7.33382C0.0632662 7.14402 0 6.95422 0 6.70116C0 6.44809 0.0632662 6.25829 0.253065 6.06849C0.442863 5.8787 0.632662 5.81543 0.822461 5.81543H7.02255C7.27561 5.81543 7.46541 5.8787 7.65521 6.06849C7.84501 6.25829 7.90828 6.44809 7.90828 6.70116C7.90828 6.82769 7.90828 6.95422 7.84501 7.01749C7.78174 7.14402 7.71848 7.20729 7.65521 7.27055C7.59195 7.33382 7.46541 7.39708 7.40215 7.46035C7.27561 7.52362 7.21235 7.52362 7.08582 7.52362H4.74497V7.58688Z" fill="#222222"/>
<path d="M10.5654 9.73836C10.8817 9.42202 11.1981 9.23223 11.5777 9.04243C11.9573 8.85263 12.3369 8.78936 12.7165 8.78936C13.2226 8.78936 13.6654 8.91589 14.1083 9.10569C14.4879 9.29549 14.8675 9.61182 15.1838 9.92815C15.5002 10.3078 15.69 10.6873 15.8798 11.1935C16.0696 11.6996 16.1328 12.2057 16.1328 12.7751V16.065C16.1328 16.318 16.0696 16.5078 15.8798 16.6344C15.69 16.8242 15.5002 16.8874 15.2471 16.8874C14.994 16.8874 14.8042 16.8242 14.6144 16.6344C14.4246 16.4446 14.3614 16.2548 14.3614 16.065V12.8384C14.3614 12.5221 14.2981 12.2057 14.2348 11.8894C14.1716 11.6363 14.045 11.3833 13.8552 11.1935C13.7287 11.0037 13.4756 10.8139 13.2858 10.7506C13.096 10.6873 12.7797 10.5608 12.5267 10.5608C12.2736 10.5608 11.9573 10.6241 11.7675 10.7506C11.5144 10.8771 11.3246 11.0037 11.1348 11.1935C10.945 11.3833 10.8185 11.6363 10.6919 11.8894C10.5654 12.1425 10.5021 12.4588 10.5021 12.7119V16.1282C10.5021 16.3813 10.4389 16.5711 10.2491 16.7609C10.0593 16.9507 9.86947 17.014 9.61641 17.014C9.48987 17.014 9.36334 17.014 9.30008 16.9507C9.17354 16.8874 9.11028 16.8242 9.04701 16.7609C8.98374 16.6976 8.92048 16.5711 8.85721 16.5078C8.79394 16.4446 8.79395 16.318 8.79395 16.1915V6.76484C8.79395 6.63831 8.79394 6.51178 8.85721 6.44851C8.92048 6.32198 8.98374 6.25871 9.04701 6.19545C9.11028 6.13218 9.23681 6.06891 9.30008 6.00565C9.42661 5.94238 9.48987 5.94238 9.61641 5.94238C9.74294 5.94238 9.86947 5.94238 9.93274 6.00565C10.0593 6.06891 10.1225 6.13218 10.1858 6.19545C10.4389 6.19545 10.5021 6.32198 10.5021 6.38525C10.5654 6.51178 10.5654 6.57504 10.5654 6.70158V9.73836Z" fill="#222222"/>
<path d="M19.1697 13.5968C19.2329 13.8499 19.3595 14.0397 19.486 14.2927C19.6125 14.4825 19.8023 14.6723 19.9921 14.7989C20.1819 14.9254 20.3717 15.0519 20.6248 15.1152C20.8778 15.1785 21.1309 15.2417 21.384 15.2417C21.7636 15.2417 22.0799 15.1785 22.2697 15.0519C22.5228 14.9254 22.7126 14.7989 22.9024 14.6091C23.0289 14.4825 23.2187 14.4193 23.3452 14.4193C23.4718 14.4193 23.5983 14.4193 23.7248 14.4825C23.7881 14.4825 23.9146 14.5458 23.9779 14.6091C24.0412 14.6723 24.1044 14.7356 24.1677 14.7989C24.2942 14.9887 24.2942 15.1785 24.2942 15.3683C24.2942 15.5581 24.1677 15.7479 23.9779 15.9377C23.8514 16.0642 23.7248 16.1907 23.535 16.3173C23.3452 16.4438 23.1554 16.5071 22.9656 16.6336C22.7758 16.6968 22.5228 16.7601 22.2697 16.8234C22.0166 16.8866 21.7003 16.8866 21.384 16.8866C20.8146 16.8866 20.3084 16.7601 19.8023 16.5703C19.2962 16.3805 18.8533 16.0642 18.4737 15.6846C18.0941 15.305 17.8411 14.8621 17.588 14.4193C17.3982 13.9131 17.2717 13.407 17.2717 12.8376C17.2717 12.2682 17.3982 11.7621 17.588 11.256C17.7778 10.7498 18.0941 10.307 18.4737 9.99063C18.8533 9.61103 19.2962 9.35797 19.8023 9.10491C20.3084 8.91511 20.8146 8.78857 21.384 8.78857C21.9534 8.78857 22.4595 8.91511 22.9656 9.10491C23.4718 9.2947 23.9146 9.61103 24.231 9.99063C24.6105 10.3702 24.9269 10.8131 25.1167 11.256C25.3065 11.7621 25.433 12.2682 25.433 12.8376C25.433 13.0907 25.3697 13.2805 25.1799 13.407C25.0534 13.5335 24.8003 13.6601 24.5473 13.6601H19.1697V13.5968ZM23.7248 12.2049C23.6616 11.9519 23.535 11.6988 23.4085 11.509C23.282 11.3192 23.0922 11.1294 22.9024 10.9396C22.7126 10.7498 22.4595 10.6233 22.2064 10.56C21.9534 10.4968 21.7003 10.4335 21.384 10.4335C21.0676 10.4335 20.8146 10.4968 20.5615 10.56C20.3084 10.6233 20.0554 10.7498 19.8656 10.9396C19.6758 11.1294 19.486 11.3192 19.3595 11.509C19.2329 11.6988 19.1064 11.9519 19.0431 12.2049H23.7248Z" fill="#222222"/>
</svg>
