<svg width="148" height="186" viewBox="0 0 148 186" fill="none" xmlns="http://www.w3.org/2000/svg">
<path d="M52.2119 10.0469L55.083 17.6758L57.9473 10.0469H60.1826V20H58.46V16.7188L58.6309 12.3301L55.6914 20H54.4541L51.5215 12.3369L51.6924 16.7188V20H49.9697V10.0469H52.2119ZM65.3301 20.1367C64.2773 20.1367 63.4229 19.8063 62.7666 19.1455C62.1149 18.4801 61.7891 17.596 61.7891 16.4932V16.2881C61.7891 15.5498 61.9303 14.8913 62.2129 14.3125C62.5 13.7292 62.901 13.2757 63.416 12.9521C63.931 12.6286 64.5052 12.4668 65.1387 12.4668C66.1458 12.4668 66.9229 12.7881 67.4697 13.4307C68.0212 14.0732 68.2969 14.9824 68.2969 16.1582V16.8281H63.4639C63.514 17.4388 63.7168 17.9219 64.0723 18.2773C64.4323 18.6328 64.8835 18.8105 65.4258 18.8105C66.1868 18.8105 66.8066 18.5029 67.2852 17.8877L68.1807 18.7422C67.8844 19.1842 67.488 19.5283 66.9912 19.7744C66.499 20.016 65.9453 20.1367 65.3301 20.1367ZM65.1318 13.7998C64.6761 13.7998 64.307 13.9593 64.0244 14.2783C63.7464 14.5973 63.5687 15.0417 63.4912 15.6113H66.6562V15.4883C66.6198 14.9323 66.4717 14.513 66.2119 14.2305C65.9521 13.9434 65.5921 13.7998 65.1318 13.7998ZM69.2812 16.2471C69.2812 15.1077 69.5456 14.194 70.0742 13.5059C70.6029 12.8132 71.3115 12.4668 72.2002 12.4668C72.984 12.4668 73.6175 12.7402 74.1006 13.2871V9.5H75.7617V20H74.2578L74.1758 19.2344C73.679 19.8359 73.016 20.1367 72.1865 20.1367C71.3206 20.1367 70.6188 19.7881 70.0811 19.0908C69.5479 18.3936 69.2812 17.4456 69.2812 16.2471ZM70.9424 16.3906C70.9424 17.1426 71.0859 17.7305 71.373 18.1543C71.6647 18.5736 72.0771 18.7832 72.6104 18.7832C73.2894 18.7832 73.7861 18.4801 74.1006 17.874V14.7158C73.7952 14.1234 73.3031 13.8271 72.624 13.8271C72.0863 13.8271 71.6715 14.0413 71.3799 14.4697C71.0882 14.8936 70.9424 15.5339 70.9424 16.3906ZM79.2617 20H77.6006V12.6035H79.2617V20ZM77.498 10.6826C77.498 10.4274 77.5778 10.2155 77.7373 10.0469C77.9014 9.87826 78.1338 9.79395 78.4346 9.79395C78.7354 9.79395 78.9678 9.87826 79.1318 10.0469C79.2959 10.2155 79.3779 10.4274 79.3779 10.6826C79.3779 10.9333 79.2959 11.1429 79.1318 11.3115C78.9678 11.4756 78.7354 11.5576 78.4346 11.5576C78.1338 11.5576 77.9014 11.4756 77.7373 11.3115C77.5778 11.1429 77.498 10.9333 77.498 10.6826ZM85.5576 19.2754C85.07 19.8496 84.3773 20.1367 83.4795 20.1367C82.6774 20.1367 82.069 19.902 81.6543 19.4326C81.2441 18.9632 81.0391 18.2842 81.0391 17.3955V12.6035H82.7002V17.375C82.7002 18.3138 83.0898 18.7832 83.8691 18.7832C84.6758 18.7832 85.2204 18.4938 85.5029 17.915V12.6035H87.1641V20H85.5986L85.5576 19.2754ZM90.418 12.6035L90.4658 13.376C90.9854 12.7699 91.6963 12.4668 92.5986 12.4668C93.5876 12.4668 94.2643 12.8451 94.6289 13.6016C95.1667 12.8451 95.9232 12.4668 96.8984 12.4668C97.7142 12.4668 98.3203 12.6924 98.7168 13.1436C99.1178 13.5947 99.3229 14.2601 99.332 15.1396V20H97.6709V15.1875C97.6709 14.7181 97.5684 14.374 97.3633 14.1553C97.1582 13.9365 96.8187 13.8271 96.3447 13.8271C95.9665 13.8271 95.6566 13.9297 95.415 14.1348C95.1781 14.3353 95.0117 14.5996 94.916 14.9277L94.9229 20H93.2617V15.1328C93.2389 14.2624 92.7946 13.8271 91.9287 13.8271C91.2633 13.8271 90.7917 14.0983 90.5137 14.6406V20H88.8525V12.6035H90.418Z" fill="#222222"/>
<path d="M122.857 155H121.135V150.577H116.685V155H114.955V145.047H116.685V149.189H121.135V145.047H122.857V155ZM126.515 155H124.854V147.604H126.515V155ZM124.751 145.683C124.751 145.427 124.831 145.215 124.99 145.047C125.154 144.878 125.387 144.794 125.688 144.794C125.988 144.794 126.221 144.878 126.385 145.047C126.549 145.215 126.631 145.427 126.631 145.683C126.631 145.933 126.549 146.143 126.385 146.312C126.221 146.476 125.988 146.558 125.688 146.558C125.387 146.558 125.154 146.476 124.99 146.312C124.831 146.143 124.751 145.933 124.751 145.683ZM128.039 151.247C128.039 150.099 128.308 149.183 128.846 148.499C129.388 147.811 130.106 147.467 130.999 147.467C131.842 147.467 132.505 147.761 132.988 148.349L133.063 147.604H134.561V154.774C134.561 155.745 134.257 156.511 133.651 157.071C133.05 157.632 132.236 157.912 131.211 157.912C130.669 157.912 130.138 157.798 129.618 157.57C129.103 157.347 128.711 157.053 128.442 156.688L129.229 155.69C129.739 156.297 130.368 156.6 131.115 156.6C131.667 156.6 132.102 156.449 132.421 156.148C132.74 155.852 132.899 155.415 132.899 154.836V154.337C132.421 154.87 131.783 155.137 130.985 155.137C130.119 155.137 129.411 154.793 128.859 154.104C128.312 153.416 128.039 152.464 128.039 151.247ZM129.693 151.391C129.693 152.133 129.844 152.719 130.145 153.147C130.45 153.571 130.871 153.783 131.409 153.783C132.079 153.783 132.576 153.496 132.899 152.922V149.668C132.585 149.107 132.093 148.827 131.423 148.827C130.876 148.827 130.45 149.044 130.145 149.477C129.844 149.91 129.693 150.548 129.693 151.391ZM137.91 148.41C138.452 147.781 139.138 147.467 139.968 147.467C141.545 147.467 142.344 148.367 142.367 150.167V155H140.706V150.229C140.706 149.718 140.594 149.358 140.371 149.148C140.152 148.934 139.829 148.827 139.4 148.827C138.735 148.827 138.238 149.123 137.91 149.716V155H136.249V144.5H137.91V148.41Z" fill="#222222"/>
<path d="M4.33887 153.619H8.85742V155H2.60938V145.047H4.33887V153.619ZM9.71191 151.233C9.71191 150.509 9.85547 149.857 10.1426 149.278C10.4297 148.695 10.833 148.248 11.3525 147.938C11.8721 147.624 12.4691 147.467 13.1436 147.467C14.1416 147.467 14.9505 147.788 15.5703 148.431C16.1947 149.073 16.5319 149.925 16.582 150.987L16.5889 151.377C16.5889 152.106 16.4476 152.758 16.165 153.332C15.887 153.906 15.486 154.351 14.9619 154.665C14.4424 154.979 13.8408 155.137 13.1572 155.137C12.1136 155.137 11.2773 154.79 10.6484 154.098C10.0241 153.4 9.71191 152.473 9.71191 151.315V151.233ZM11.373 151.377C11.373 152.138 11.5303 152.735 11.8447 153.168C12.1592 153.596 12.5967 153.811 13.1572 153.811C13.7178 153.811 14.153 153.592 14.4629 153.154C14.7773 152.717 14.9346 152.076 14.9346 151.233C14.9346 150.486 14.7728 149.894 14.4492 149.456C14.1302 149.019 13.695 148.8 13.1436 148.8C12.6012 148.8 12.1706 149.016 11.8516 149.449C11.5326 149.878 11.373 150.52 11.373 151.377ZM24.4912 152.71L25.667 147.604H27.2871L25.2705 155H23.9033L22.3174 149.921L20.7588 155H19.3916L17.3682 147.604H18.9883L20.1846 152.655L21.7021 147.604H22.9531L24.4912 152.71Z" fill="#222222"/>
<path d="M73.7095 32.0001C89.2997 31.9758 104.497 36.8877 117.124 46.0317L101.536 67.5572C93.4551 61.705 83.7286 58.5614 73.7509 58.5769L73.7095 32.0001Z" fill="#FFC618"/>
<path d="M117.133 46.0388C129.758 55.1848 139.164 68.093 144.003 82.9134L118.738 91.1616C115.642 81.6765 109.622 73.4153 101.542 67.5619L117.133 46.0388Z" fill="#FF8E02"/>
<path d="M144.004 82.9153C148.842 97.7358 148.864 113.708 144.067 128.541L118.779 120.363C121.85 110.87 121.836 100.648 118.739 91.1627L144.004 82.9153Z" fill="#FE0009"/>
<path d="M3.65534 128.767C-1.18959 113.948 -1.21898 97.9766 3.57136 83.1406L28.8625 91.3068C25.7967 100.802 25.8155 111.024 28.9163 120.507L3.65534 128.767Z" fill="#02B421"/>
<path d="M3.57471 83.1304C8.36732 68.2951 17.7334 55.3578 30.3307 46.1729L45.9885 67.6476C37.9262 73.526 31.9319 81.8058 28.8646 91.3004L3.57471 83.1304Z" fill="#50DF34"/>
<path d="M30.3325 46.1719C42.9301 36.9873 58.1119 32.0266 73.7021 32.0007L73.7461 58.5775C63.7684 58.5941 54.052 61.7689 45.9896 67.6471L30.3325 46.1719Z" fill="#FCFF05"/>
<path d="M73.4678 67.321L83.2563 156.33H63.6793L73.4678 67.321Z" fill="#222222"/>
<circle cx="73.4678" cy="130.899" r="12.6284" fill="white" stroke="#222222" stroke-width="3"/>
</svg>
