<svg width="482" height="228" viewBox="0 0 482 228" fill="none" xmlns="http://www.w3.org/2000/svg">
	<path d="M160.859 180.031H156.094L155.023 183H153.477L157.82 171.625H159.133L163.484 183H161.945L160.859 180.031ZM156.547 178.797H160.414L158.477 173.477L156.547 178.797ZM168.875 175.844C168.656 175.807 168.419 175.789 168.164 175.789C167.216 175.789 166.573 176.193 166.234 177V183H164.789V174.547H166.195L166.219 175.523C166.693 174.768 167.365 174.391 168.234 174.391C168.516 174.391 168.729 174.427 168.875 174.5V175.844ZM172.562 172.5V174.547H174.141V175.664H172.562V180.906C172.562 181.245 172.633 181.5 172.773 181.672C172.914 181.839 173.154 181.922 173.492 181.922C173.659 181.922 173.888 181.891 174.18 181.828V183C173.799 183.104 173.43 183.156 173.07 183.156C172.424 183.156 171.938 182.961 171.609 182.57C171.281 182.18 171.117 181.625 171.117 180.906V175.664H169.578V174.547H171.117V172.5H172.562ZM137.25 201V189.625H140.461C141.451 189.625 142.326 189.844 143.086 190.281C143.846 190.719 144.432 191.341 144.844 192.148C145.26 192.956 145.471 193.883 145.477 194.93V195.656C145.477 196.729 145.268 197.669 144.852 198.477C144.44 199.284 143.849 199.904 143.078 200.336C142.312 200.768 141.419 200.99 140.398 201H137.25ZM138.75 190.859V199.773H140.328C141.484 199.773 142.383 199.414 143.023 198.695C143.669 197.977 143.992 196.953 143.992 195.625V194.961C143.992 193.669 143.688 192.667 143.078 191.953C142.474 191.234 141.615 190.87 140.5 190.859H138.75ZM149.094 201H147.648V192.547H149.094V201ZM147.531 190.305C147.531 190.07 147.602 189.872 147.742 189.711C147.888 189.549 148.102 189.469 148.383 189.469C148.664 189.469 148.878 189.549 149.023 189.711C149.169 189.872 149.242 190.07 149.242 190.305C149.242 190.539 149.169 190.734 149.023 190.891C148.878 191.047 148.664 191.125 148.383 191.125C148.102 191.125 147.888 191.047 147.742 190.891C147.602 190.734 147.531 190.539 147.531 190.305ZM155.5 193.844C155.281 193.807 155.044 193.789 154.789 193.789C153.841 193.789 153.198 194.193 152.859 195V201H151.414V192.547H152.82L152.844 193.523C153.318 192.768 153.99 192.391 154.859 192.391C155.141 192.391 155.354 192.427 155.5 192.5V193.844ZM160.188 201.156C159.042 201.156 158.109 200.781 157.391 200.031C156.672 199.276 156.312 198.268 156.312 197.008V196.742C156.312 195.904 156.471 195.156 156.789 194.5C157.112 193.839 157.56 193.323 158.133 192.953C158.711 192.578 159.336 192.391 160.008 192.391C161.107 192.391 161.961 192.753 162.57 193.477C163.18 194.201 163.484 195.237 163.484 196.586V197.188H157.758C157.779 198.021 158.021 198.695 158.484 199.211C158.953 199.721 159.547 199.977 160.266 199.977C160.776 199.977 161.208 199.872 161.562 199.664C161.917 199.456 162.227 199.18 162.492 198.836L163.375 199.523C162.667 200.612 161.604 201.156 160.188 201.156ZM160.008 193.578C159.424 193.578 158.935 193.792 158.539 194.219C158.143 194.641 157.898 195.234 157.805 196H162.039V195.891C161.997 195.156 161.799 194.589 161.445 194.188C161.091 193.781 160.612 193.578 160.008 193.578ZM168.555 199.977C169.07 199.977 169.521 199.82 169.906 199.508C170.292 199.195 170.505 198.805 170.547 198.336H171.914C171.888 198.82 171.721 199.281 171.414 199.719C171.107 200.156 170.695 200.505 170.18 200.766C169.669 201.026 169.128 201.156 168.555 201.156C167.404 201.156 166.487 200.773 165.805 200.008C165.128 199.237 164.789 198.185 164.789 196.852V196.609C164.789 195.786 164.94 195.055 165.242 194.414C165.544 193.773 165.977 193.276 166.539 192.922C167.107 192.568 167.776 192.391 168.547 192.391C169.495 192.391 170.281 192.674 170.906 193.242C171.536 193.81 171.872 194.547 171.914 195.453H170.547C170.505 194.906 170.297 194.458 169.922 194.109C169.552 193.755 169.094 193.578 168.547 193.578C167.812 193.578 167.242 193.844 166.836 194.375C166.435 194.901 166.234 195.664 166.234 196.664V196.938C166.234 197.911 166.435 198.661 166.836 199.188C167.237 199.714 167.81 199.977 168.555 199.977ZM175.5 190.5V192.547H177.078V193.664H175.5V198.906C175.5 199.245 175.57 199.5 175.711 199.672C175.852 199.839 176.091 199.922 176.43 199.922C176.596 199.922 176.826 199.891 177.117 199.828V201C176.737 201.104 176.367 201.156 176.008 201.156C175.362 201.156 174.875 200.961 174.547 200.57C174.219 200.18 174.055 199.625 174.055 198.906V193.664H172.516V192.547H174.055V190.5H175.5ZM178.234 196.695C178.234 195.867 178.396 195.122 178.719 194.461C179.047 193.799 179.5 193.289 180.078 192.93C180.661 192.57 181.326 192.391 182.07 192.391C183.221 192.391 184.151 192.789 184.859 193.586C185.573 194.383 185.93 195.443 185.93 196.766V196.867C185.93 197.69 185.771 198.43 185.453 199.086C185.141 199.737 184.69 200.245 184.102 200.609C183.518 200.974 182.846 201.156 182.086 201.156C180.94 201.156 180.01 200.758 179.297 199.961C178.589 199.164 178.234 198.109 178.234 196.797V196.695ZM179.688 196.867C179.688 197.805 179.904 198.557 180.336 199.125C180.773 199.693 181.357 199.977 182.086 199.977C182.82 199.977 183.404 199.69 183.836 199.117C184.268 198.539 184.484 197.732 184.484 196.695C184.484 195.768 184.263 195.018 183.82 194.445C183.383 193.867 182.799 193.578 182.07 193.578C181.357 193.578 180.781 193.862 180.344 194.43C179.906 194.997 179.688 195.81 179.688 196.867ZM191.828 193.844C191.609 193.807 191.372 193.789 191.117 193.789C190.169 193.789 189.526 194.193 189.188 195V201H187.742V192.547H189.148L189.172 193.523C189.646 192.768 190.318 192.391 191.188 192.391C191.469 192.391 191.682 192.427 191.828 192.5V193.844Z" fill="#222222"/>
	<path d="M164.568 151.612C164.568 153.452 164.223 154.841 163.531 155.778C162.846 156.71 161.8 157.176 160.394 157.176C159.011 157.176 157.968 156.722 157.265 155.813C156.567 154.899 156.21 153.549 156.192 151.762V149.547C156.192 147.707 156.535 146.327 157.221 145.407C157.912 144.487 158.964 144.027 160.376 144.027C161.776 144.027 162.819 144.476 163.505 145.372C164.196 146.269 164.551 147.61 164.568 149.397V151.612ZM162.433 149.222C162.433 148.021 162.269 147.142 161.94 146.585C161.612 146.022 161.091 145.741 160.376 145.741C159.679 145.741 159.166 146.008 158.838 146.541C158.51 147.068 158.337 147.895 158.319 149.02V151.92C158.319 153.115 158.486 154.006 158.82 154.592C159.154 155.178 159.679 155.471 160.394 155.471C161.079 155.471 161.586 155.201 161.914 154.662C162.242 154.117 162.415 153.268 162.433 152.113V149.222ZM173.683 152.438H175.273V154.152H173.683V157H171.547V154.152H166.019L165.957 152.852L171.477 144.203H173.683V152.438ZM168.198 152.438H171.547V147.095L171.389 147.376L168.198 152.438Z" fill="#449BEC"/>
	<path d="M331.568 151.612C331.568 153.452 331.223 154.841 330.531 155.778C329.846 156.71 328.8 157.176 327.394 157.176C326.011 157.176 324.968 156.722 324.265 155.813C323.567 154.899 323.21 153.549 323.192 151.762V149.547C323.192 147.707 323.535 146.327 324.221 145.407C324.912 144.487 325.964 144.027 327.376 144.027C328.776 144.027 329.819 144.476 330.505 145.372C331.196 146.269 331.551 147.61 331.568 149.397V151.612ZM329.433 149.222C329.433 148.021 329.269 147.142 328.94 146.585C328.612 146.022 328.091 145.741 327.376 145.741C326.679 145.741 326.166 146.008 325.838 146.541C325.51 147.068 325.337 147.895 325.319 149.02V151.92C325.319 153.115 325.486 154.006 325.82 154.592C326.154 155.178 326.679 155.471 327.394 155.471C328.079 155.471 328.586 155.201 328.914 154.662C329.242 154.117 329.415 153.268 329.433 152.113V149.222ZM334.029 150.654L334.724 144.203H341.597V146.049H336.499L336.147 149.107C336.739 148.768 337.407 148.598 338.151 148.598C339.37 148.598 340.316 148.987 340.99 149.767C341.67 150.546 342.01 151.595 342.01 152.913C342.01 154.214 341.635 155.251 340.885 156.024C340.135 156.792 339.106 157.176 337.8 157.176C336.628 157.176 335.655 156.845 334.882 156.183C334.114 155.515 333.698 154.636 333.634 153.546H335.699C335.781 154.167 336.004 154.645 336.367 154.979C336.73 155.307 337.205 155.471 337.791 155.471C338.447 155.471 338.957 155.236 339.32 154.768C339.689 154.299 339.874 153.66 339.874 152.852C339.874 152.072 339.672 151.457 339.268 151.006C338.863 150.549 338.307 150.32 337.598 150.32C337.211 150.32 336.883 150.373 336.613 150.479C336.344 150.578 336.051 150.777 335.734 151.076L334.029 150.654Z" fill="#003A9B"/>
	<path d="M102.439 153.164C109.225 142.567 120.528 134.055 134.486 129.03C148.444 124.005 164.223 122.768 179.223 125.523C194.223 128.277 207.549 134.858 217.005 144.182C226.46 153.505 231.48 165.015 231.238 176.813C230.997 188.612 225.507 199.996 215.675 209.088C205.842 218.18 192.253 224.439 177.147 226.832C162.042 229.225 146.321 227.611 132.576 222.254C118.831 216.897 107.882 208.118 101.533 197.364L107.718 195.227C113.432 204.906 123.286 212.807 135.657 217.629C148.027 222.45 162.176 223.903 175.771 221.749C189.366 219.595 201.596 213.962 210.445 205.779C219.295 197.596 224.235 187.351 224.453 176.732C224.671 166.113 220.152 155.755 211.642 147.363C203.133 138.972 191.139 133.049 177.639 130.57C164.139 128.091 149.938 129.205 137.376 133.727C124.814 138.249 114.641 145.91 108.533 155.447L102.439 153.164Z" fill="#449BEC"/>
	<path d="M114 175.736L91.5 189.131L91.5 162.341L114 175.736Z" fill="#449BEC"/>
	<path d="M313.125 179.391C312.984 180.594 312.539 181.523 311.789 182.18C311.044 182.831 310.052 183.156 308.812 183.156C307.469 183.156 306.391 182.674 305.578 181.711C304.771 180.747 304.367 179.458 304.367 177.844V176.75C304.367 175.693 304.555 174.763 304.93 173.961C305.31 173.159 305.846 172.544 306.539 172.117C307.232 171.685 308.034 171.469 308.945 171.469C310.154 171.469 311.122 171.807 311.852 172.484C312.581 173.156 313.005 174.089 313.125 175.281H311.617C311.487 174.375 311.203 173.719 310.766 173.312C310.333 172.906 309.727 172.703 308.945 172.703C307.987 172.703 307.234 173.057 306.688 173.766C306.146 174.474 305.875 175.482 305.875 176.789V177.891C305.875 179.125 306.133 180.107 306.648 180.836C307.164 181.565 307.885 181.93 308.812 181.93C309.646 181.93 310.284 181.742 310.727 181.367C311.174 180.987 311.471 180.328 311.617 179.391H313.125ZM319.039 175.844C318.82 175.807 318.583 175.789 318.328 175.789C317.38 175.789 316.737 176.193 316.398 177V183H314.953V174.547H316.359L316.383 175.523C316.857 174.768 317.529 174.391 318.398 174.391C318.68 174.391 318.893 174.427 319.039 174.5V175.844ZM323.727 183.156C322.581 183.156 321.648 182.781 320.93 182.031C320.211 181.276 319.852 180.268 319.852 179.008V178.742C319.852 177.904 320.01 177.156 320.328 176.5C320.651 175.839 321.099 175.323 321.672 174.953C322.25 174.578 322.875 174.391 323.547 174.391C324.646 174.391 325.5 174.753 326.109 175.477C326.719 176.201 327.023 177.237 327.023 178.586V179.188H321.297C321.318 180.021 321.56 180.695 322.023 181.211C322.492 181.721 323.086 181.977 323.805 181.977C324.315 181.977 324.747 181.872 325.102 181.664C325.456 181.456 325.766 181.18 326.031 180.836L326.914 181.523C326.206 182.612 325.143 183.156 323.727 183.156ZM323.547 175.578C322.964 175.578 322.474 175.792 322.078 176.219C321.682 176.641 321.438 177.234 321.344 178H325.578V177.891C325.536 177.156 325.339 176.589 324.984 176.188C324.63 175.781 324.151 175.578 323.547 175.578ZM333.922 183C333.839 182.833 333.771 182.536 333.719 182.109C333.047 182.807 332.245 183.156 331.312 183.156C330.479 183.156 329.794 182.922 329.258 182.453C328.727 181.979 328.461 181.38 328.461 180.656C328.461 179.776 328.794 179.094 329.461 178.609C330.133 178.12 331.076 177.875 332.289 177.875H333.695V177.211C333.695 176.706 333.544 176.305 333.242 176.008C332.94 175.706 332.495 175.555 331.906 175.555C331.391 175.555 330.958 175.685 330.609 175.945C330.26 176.206 330.086 176.521 330.086 176.891H328.633C328.633 176.469 328.781 176.062 329.078 175.672C329.38 175.276 329.786 174.964 330.297 174.734C330.812 174.505 331.378 174.391 331.992 174.391C332.966 174.391 333.729 174.635 334.281 175.125C334.833 175.609 335.12 176.279 335.141 177.133V181.023C335.141 181.799 335.24 182.417 335.438 182.875V183H333.922ZM331.523 181.898C331.977 181.898 332.406 181.781 332.812 181.547C333.219 181.312 333.513 181.008 333.695 180.633V178.898H332.562C330.792 178.898 329.906 179.417 329.906 180.453C329.906 180.906 330.057 181.26 330.359 181.516C330.661 181.771 331.049 181.898 331.523 181.898ZM339.367 172.5V174.547H340.945V175.664H339.367V180.906C339.367 181.245 339.438 181.5 339.578 181.672C339.719 181.839 339.958 181.922 340.297 181.922C340.464 181.922 340.693 181.891 340.984 181.828V183C340.604 183.104 340.234 183.156 339.875 183.156C339.229 183.156 338.742 182.961 338.414 182.57C338.086 182.18 337.922 181.625 337.922 180.906V175.664H336.383V174.547H337.922V172.5H339.367ZM344.211 183H342.766V174.547H344.211V183ZM342.648 172.305C342.648 172.07 342.719 171.872 342.859 171.711C343.005 171.549 343.219 171.469 343.5 171.469C343.781 171.469 343.995 171.549 344.141 171.711C344.286 171.872 344.359 172.07 344.359 172.305C344.359 172.539 344.286 172.734 344.141 172.891C343.995 173.047 343.781 173.125 343.5 173.125C343.219 173.125 343.005 173.047 342.859 172.891C342.719 172.734 342.648 172.539 342.648 172.305ZM349.32 181.039L351.414 174.547H352.891L349.859 183H348.758L345.695 174.547H347.172L349.32 181.039ZM357.68 183.156C356.534 183.156 355.602 182.781 354.883 182.031C354.164 181.276 353.805 180.268 353.805 179.008V178.742C353.805 177.904 353.964 177.156 354.281 176.5C354.604 175.839 355.052 175.323 355.625 174.953C356.203 174.578 356.828 174.391 357.5 174.391C358.599 174.391 359.453 174.753 360.062 175.477C360.672 176.201 360.977 177.237 360.977 178.586V179.188H355.25C355.271 180.021 355.513 180.695 355.977 181.211C356.445 181.721 357.039 181.977 357.758 181.977C358.268 181.977 358.701 181.872 359.055 181.664C359.409 181.456 359.719 181.18 359.984 180.836L360.867 181.523C360.159 182.612 359.096 183.156 357.68 183.156ZM357.5 175.578C356.917 175.578 356.427 175.792 356.031 176.219C355.635 176.641 355.391 177.234 355.297 178H359.531V177.891C359.49 177.156 359.292 176.589 358.938 176.188C358.583 175.781 358.104 175.578 357.5 175.578ZM305.75 201V189.625H308.961C309.951 189.625 310.826 189.844 311.586 190.281C312.346 190.719 312.932 191.341 313.344 192.148C313.76 192.956 313.971 193.883 313.977 194.93V195.656C313.977 196.729 313.768 197.669 313.352 198.477C312.94 199.284 312.349 199.904 311.578 200.336C310.812 200.768 309.919 200.99 308.898 201H305.75ZM307.25 190.859V199.773H308.828C309.984 199.773 310.883 199.414 311.523 198.695C312.169 197.977 312.492 196.953 312.492 195.625V194.961C312.492 193.669 312.188 192.667 311.578 191.953C310.974 191.234 310.115 190.87 309 190.859H307.25ZM317.594 201H316.148V192.547H317.594V201ZM316.031 190.305C316.031 190.07 316.102 189.872 316.242 189.711C316.388 189.549 316.602 189.469 316.883 189.469C317.164 189.469 317.378 189.549 317.523 189.711C317.669 189.872 317.742 190.07 317.742 190.305C317.742 190.539 317.669 190.734 317.523 190.891C317.378 191.047 317.164 191.125 316.883 191.125C316.602 191.125 316.388 191.047 316.242 190.891C316.102 190.734 316.031 190.539 316.031 190.305ZM324 193.844C323.781 193.807 323.544 193.789 323.289 193.789C322.341 193.789 321.698 194.193 321.359 195V201H319.914V192.547H321.32L321.344 193.523C321.818 192.768 322.49 192.391 323.359 192.391C323.641 192.391 323.854 192.427 324 192.5V193.844ZM328.688 201.156C327.542 201.156 326.609 200.781 325.891 200.031C325.172 199.276 324.812 198.268 324.812 197.008V196.742C324.812 195.904 324.971 195.156 325.289 194.5C325.612 193.839 326.06 193.323 326.633 192.953C327.211 192.578 327.836 192.391 328.508 192.391C329.607 192.391 330.461 192.753 331.07 193.477C331.68 194.201 331.984 195.237 331.984 196.586V197.188H326.258C326.279 198.021 326.521 198.695 326.984 199.211C327.453 199.721 328.047 199.977 328.766 199.977C329.276 199.977 329.708 199.872 330.062 199.664C330.417 199.456 330.727 199.18 330.992 198.836L331.875 199.523C331.167 200.612 330.104 201.156 328.688 201.156ZM328.508 193.578C327.924 193.578 327.435 193.792 327.039 194.219C326.643 194.641 326.398 195.234 326.305 196H330.539V195.891C330.497 195.156 330.299 194.589 329.945 194.188C329.591 193.781 329.112 193.578 328.508 193.578ZM337.055 199.977C337.57 199.977 338.021 199.82 338.406 199.508C338.792 199.195 339.005 198.805 339.047 198.336H340.414C340.388 198.82 340.221 199.281 339.914 199.719C339.607 200.156 339.195 200.505 338.68 200.766C338.169 201.026 337.628 201.156 337.055 201.156C335.904 201.156 334.987 200.773 334.305 200.008C333.628 199.237 333.289 198.185 333.289 196.852V196.609C333.289 195.786 333.44 195.055 333.742 194.414C334.044 193.773 334.477 193.276 335.039 192.922C335.607 192.568 336.276 192.391 337.047 192.391C337.995 192.391 338.781 192.674 339.406 193.242C340.036 193.81 340.372 194.547 340.414 195.453H339.047C339.005 194.906 338.797 194.458 338.422 194.109C338.052 193.755 337.594 193.578 337.047 193.578C336.312 193.578 335.742 193.844 335.336 194.375C334.935 194.901 334.734 195.664 334.734 196.664V196.938C334.734 197.911 334.935 198.661 335.336 199.188C335.737 199.714 336.31 199.977 337.055 199.977ZM344 190.5V192.547H345.578V193.664H344V198.906C344 199.245 344.07 199.5 344.211 199.672C344.352 199.839 344.591 199.922 344.93 199.922C345.096 199.922 345.326 199.891 345.617 199.828V201C345.237 201.104 344.867 201.156 344.508 201.156C343.862 201.156 343.375 200.961 343.047 200.57C342.719 200.18 342.555 199.625 342.555 198.906V193.664H341.016V192.547H342.555V190.5H344ZM346.734 196.695C346.734 195.867 346.896 195.122 347.219 194.461C347.547 193.799 348 193.289 348.578 192.93C349.161 192.57 349.826 192.391 350.57 192.391C351.721 192.391 352.651 192.789 353.359 193.586C354.073 194.383 354.43 195.443 354.43 196.766V196.867C354.43 197.69 354.271 198.43 353.953 199.086C353.641 199.737 353.19 200.245 352.602 200.609C352.018 200.974 351.346 201.156 350.586 201.156C349.44 201.156 348.51 200.758 347.797 199.961C347.089 199.164 346.734 198.109 346.734 196.797V196.695ZM348.188 196.867C348.188 197.805 348.404 198.557 348.836 199.125C349.273 199.693 349.857 199.977 350.586 199.977C351.32 199.977 351.904 199.69 352.336 199.117C352.768 198.539 352.984 197.732 352.984 196.695C352.984 195.768 352.763 195.018 352.32 194.445C351.883 193.867 351.299 193.578 350.57 193.578C349.857 193.578 349.281 193.862 348.844 194.43C348.406 194.997 348.188 195.81 348.188 196.867ZM360.328 193.844C360.109 193.807 359.872 193.789 359.617 193.789C358.669 193.789 358.026 194.193 357.688 195V201H356.242V192.547H357.648L357.672 193.523C358.146 192.768 358.818 192.391 359.688 192.391C359.969 192.391 360.182 192.427 360.328 192.5V193.844Z" fill="#222222"/>
	<path d="M269.439 153.164C276.225 142.567 287.528 134.055 301.486 129.03C315.444 124.005 331.223 122.768 346.223 125.523C361.223 128.277 374.549 134.858 384.005 144.182C393.46 153.505 398.48 165.015 398.238 176.813C397.997 188.612 392.507 199.996 382.675 209.088C372.842 218.18 359.253 224.439 344.147 226.832C329.042 229.225 313.321 227.611 299.576 222.254C285.831 216.897 274.882 208.118 268.533 197.364L274.718 195.227C280.432 204.906 290.286 212.807 302.657 217.629C315.027 222.45 329.176 223.903 342.771 221.749C356.366 219.595 368.596 213.962 377.445 205.779C386.295 197.596 391.235 187.351 391.453 176.732C391.671 166.113 387.152 155.755 378.642 147.363C370.133 138.972 358.139 133.049 344.639 130.57C331.139 128.091 316.938 129.205 304.376 133.727C291.814 138.249 281.641 145.91 275.533 155.447L269.439 153.164Z" fill="#003A9B"/>
	<path d="M281 175.736L258.5 189.131L258.5 162.341L281 175.736Z" fill="#003A9B"/>
	<path d="M62.8281 57.5078C62.4427 58.0599 61.9036 58.474 61.2109 58.75C60.5234 59.0208 59.7214 59.1562 58.8047 59.1562C57.8776 59.1562 57.0547 58.9401 56.3359 58.5078C55.6172 58.0703 55.0599 57.4505 54.6641 56.6484C54.2734 55.8464 54.0729 54.9167 54.0625 53.8594V52.8672C54.0625 51.1536 54.4609 49.8255 55.2578 48.8828C56.0599 47.9401 57.1849 47.4688 58.6328 47.4688C59.8203 47.4688 60.776 47.7734 61.5 48.3828C62.224 48.987 62.6667 49.8464 62.8281 50.9609H61.3281C61.0469 49.4557 60.151 48.7031 58.6406 48.7031C57.6354 48.7031 56.8724 49.0573 56.3516 49.7656C55.8359 50.4688 55.5755 51.4896 55.5703 52.8281V53.7578C55.5703 55.0339 55.862 56.0495 56.4453 56.8047C57.0286 57.5547 57.8177 57.9297 58.8125 57.9297C59.375 57.9297 59.8672 57.8672 60.2891 57.7422C60.7109 57.6172 61.0599 57.4062 61.3359 57.1094V54.5547H58.7031V53.3359H62.8281V57.5078ZM69.1953 51.8438C68.9766 51.8073 68.7396 51.7891 68.4844 51.7891C67.5365 51.7891 66.8932 52.1927 66.5547 53V59H65.1094V50.5469H66.5156L66.5391 51.5234C67.013 50.7682 67.6849 50.3906 68.5547 50.3906C68.8359 50.3906 69.0495 50.4271 69.1953 50.5V51.8438ZM75.4375 59C75.3542 58.8333 75.2865 58.5365 75.2344 58.1094C74.5625 58.8073 73.7604 59.1562 72.8281 59.1562C71.9948 59.1562 71.3099 58.9219 70.7734 58.4531C70.2422 57.9792 69.9766 57.3802 69.9766 56.6562C69.9766 55.776 70.3099 55.0938 70.9766 54.6094C71.6484 54.1198 72.5911 53.875 73.8047 53.875H75.2109V53.2109C75.2109 52.7057 75.0599 52.3047 74.7578 52.0078C74.4557 51.7057 74.0104 51.5547 73.4219 51.5547C72.9062 51.5547 72.474 51.6849 72.125 51.9453C71.776 52.2057 71.6016 52.5208 71.6016 52.8906H70.1484C70.1484 52.4688 70.2969 52.0625 70.5938 51.6719C70.8958 51.276 71.3021 50.9635 71.8125 50.7344C72.3281 50.5052 72.8932 50.3906 73.5078 50.3906C74.4818 50.3906 75.2448 50.6354 75.7969 51.125C76.349 51.6094 76.6354 52.2786 76.6562 53.1328V57.0234C76.6562 57.7995 76.7552 58.4167 76.9531 58.875V59H75.4375ZM73.0391 57.8984C73.4922 57.8984 73.9219 57.7812 74.3281 57.5469C74.7344 57.3125 75.0286 57.0078 75.2109 56.6328V54.8984H74.0781C72.3073 54.8984 71.4219 55.4167 71.4219 56.4531C71.4219 56.9062 71.5729 57.2604 71.875 57.5156C72.1771 57.7708 72.5651 57.8984 73.0391 57.8984ZM86.0625 54.8672C86.0625 56.1536 85.7682 57.1901 85.1797 57.9766C84.5911 58.763 83.7943 59.1562 82.7891 59.1562C81.763 59.1562 80.9557 58.8307 80.3672 58.1797V62.25H78.9219V50.5469H80.2422L80.3125 51.4844C80.901 50.7552 81.7188 50.3906 82.7656 50.3906C83.7812 50.3906 84.5833 50.7734 85.1719 51.5391C85.7656 52.3047 86.0625 53.3698 86.0625 54.7344V54.8672ZM84.6172 54.7031C84.6172 53.75 84.4141 52.9974 84.0078 52.4453C83.6016 51.8932 83.0443 51.6172 82.3359 51.6172C81.4609 51.6172 80.8047 52.0052 80.3672 52.7812V56.8203C80.7995 57.5911 81.4609 57.9766 82.3516 57.9766C83.0443 57.9766 83.5938 57.7031 84 57.1562C84.4115 56.6042 84.6172 55.7865 84.6172 54.7031ZM89.3516 51.5703C89.9922 50.7839 90.8255 50.3906 91.8516 50.3906C93.638 50.3906 94.5391 51.3984 94.5547 53.4141V59H93.1094V53.4062C93.1042 52.7969 92.9635 52.3464 92.6875 52.0547C92.4167 51.763 91.9922 51.6172 91.4141 51.6172C90.9453 51.6172 90.5339 51.7422 90.1797 51.9922C89.8255 52.2422 89.5495 52.5703 89.3516 52.9766V59H87.9062V47H89.3516V51.5703ZM98.2891 59H96.8438V50.5469H98.2891V59ZM96.7266 48.3047C96.7266 48.0703 96.7969 47.8724 96.9375 47.7109C97.0833 47.5495 97.2969 47.4688 97.5781 47.4688C97.8594 47.4688 98.0729 47.5495 98.2188 47.7109C98.3646 47.8724 98.4375 48.0703 98.4375 48.3047C98.4375 48.5391 98.3646 48.7344 98.2188 48.8906C98.0729 49.0469 97.8594 49.125 97.5781 49.125C97.2969 49.125 97.0833 49.0469 96.9375 48.8906C96.7969 48.7344 96.7266 48.5391 96.7266 48.3047ZM104 57.9766C104.516 57.9766 104.966 57.8203 105.352 57.5078C105.737 57.1953 105.951 56.8047 105.992 56.3359H107.359C107.333 56.8203 107.167 57.2812 106.859 57.7188C106.552 58.1562 106.141 58.5052 105.625 58.7656C105.115 59.026 104.573 59.1562 104 59.1562C102.849 59.1562 101.932 58.7734 101.25 58.0078C100.573 57.237 100.234 56.1849 100.234 54.8516V54.6094C100.234 53.7865 100.385 53.0547 100.688 52.4141C100.99 51.7734 101.422 51.276 101.984 50.9219C102.552 50.5677 103.221 50.3906 103.992 50.3906C104.94 50.3906 105.727 50.6745 106.352 51.2422C106.982 51.8099 107.318 52.5469 107.359 53.4531H105.992C105.951 52.9062 105.742 52.4583 105.367 52.1094C104.997 51.7552 104.539 51.5781 103.992 51.5781C103.258 51.5781 102.688 51.8438 102.281 52.375C101.88 52.901 101.68 53.6641 101.68 54.6641V54.9375C101.68 55.9115 101.88 56.6615 102.281 57.1875C102.682 57.7135 103.255 57.9766 104 57.9766ZM50.3984 77V65.625H53.6094C54.599 65.625 55.474 65.8438 56.2344 66.2812C56.9948 66.7188 57.5807 67.3411 57.9922 68.1484C58.4089 68.9557 58.6198 69.8828 58.625 70.9297V71.6562C58.625 72.7292 58.4167 73.6693 58 74.4766C57.5885 75.2839 56.9974 75.9036 56.2266 76.3359C55.4609 76.7682 54.5677 76.9896 53.5469 77H50.3984ZM51.8984 66.8594V75.7734H53.4766C54.6328 75.7734 55.5312 75.4141 56.1719 74.6953C56.8177 73.9766 57.1406 72.9531 57.1406 71.625V70.9609C57.1406 69.6693 56.8359 68.6667 56.2266 67.9531C55.6224 67.2344 54.763 66.8698 53.6484 66.8594H51.8984ZM64.1797 77.1562C63.0339 77.1562 62.1016 76.7812 61.3828 76.0312C60.6641 75.276 60.3047 74.2682 60.3047 73.0078V72.7422C60.3047 71.9036 60.4635 71.1562 60.7812 70.5C61.1042 69.8385 61.5521 69.3229 62.125 68.9531C62.7031 68.5781 63.3281 68.3906 64 68.3906C65.099 68.3906 65.9531 68.7526 66.5625 69.4766C67.1719 70.2005 67.4766 71.237 67.4766 72.5859V73.1875H61.75C61.7708 74.0208 62.013 74.6953 62.4766 75.2109C62.9453 75.7214 63.5391 75.9766 64.2578 75.9766C64.7682 75.9766 65.2005 75.8724 65.5547 75.6641C65.9089 75.4557 66.2188 75.1797 66.4844 74.8359L67.3672 75.5234C66.6589 76.612 65.5964 77.1562 64.1797 77.1562ZM64 69.5781C63.4167 69.5781 62.9271 69.7917 62.5312 70.2188C62.1354 70.6406 61.8906 71.2344 61.7969 72H66.0312V71.8906C65.9896 71.1562 65.7917 70.5885 65.4375 70.1875C65.0833 69.7812 64.6042 69.5781 64 69.5781ZM74.0781 74.7578C74.0781 74.3672 73.9297 74.0651 73.6328 73.8516C73.3411 73.6328 72.8281 73.4453 72.0938 73.2891C71.3646 73.1328 70.7839 72.9453 70.3516 72.7266C69.9245 72.5078 69.6068 72.2474 69.3984 71.9453C69.1953 71.6432 69.0938 71.2839 69.0938 70.8672C69.0938 70.1745 69.3854 69.5885 69.9688 69.1094C70.5573 68.6302 71.3073 68.3906 72.2188 68.3906C73.1771 68.3906 73.9531 68.638 74.5469 69.1328C75.1458 69.6276 75.4453 70.2604 75.4453 71.0312H73.9922C73.9922 70.6354 73.8229 70.2943 73.4844 70.0078C73.151 69.7214 72.7292 69.5781 72.2188 69.5781C71.6927 69.5781 71.2812 69.6927 70.9844 69.9219C70.6875 70.151 70.5391 70.4505 70.5391 70.8203C70.5391 71.1693 70.6771 71.4323 70.9531 71.6094C71.2292 71.7865 71.7266 71.9557 72.4453 72.1172C73.1693 72.2786 73.7552 72.4714 74.2031 72.6953C74.651 72.9193 74.9818 73.1901 75.1953 73.5078C75.4141 73.8203 75.5234 74.2031 75.5234 74.6562C75.5234 75.4115 75.2214 76.0182 74.6172 76.4766C74.013 76.9297 73.2292 77.1562 72.2656 77.1562C71.5885 77.1562 70.9896 77.0365 70.4688 76.7969C69.9479 76.5573 69.5391 76.224 69.2422 75.7969C68.9505 75.3646 68.8047 74.8984 68.8047 74.3984H70.25C70.276 74.8828 70.4688 75.2682 70.8281 75.5547C71.1927 75.8359 71.6719 75.9766 72.2656 75.9766C72.8125 75.9766 73.25 75.8672 73.5781 75.6484C73.9115 75.4245 74.0781 75.1276 74.0781 74.7578ZM78.9766 77H77.5312V68.5469H78.9766V77ZM77.4141 66.3047C77.4141 66.0703 77.4844 65.8724 77.625 65.7109C77.7708 65.5495 77.9844 65.4688 78.2656 65.4688C78.5469 65.4688 78.7604 65.5495 78.9062 65.7109C79.0521 65.8724 79.125 66.0703 79.125 66.3047C79.125 66.5391 79.0521 66.7344 78.9062 66.8906C78.7604 67.0469 78.5469 67.125 78.2656 67.125C77.9844 67.125 77.7708 67.0469 77.625 66.8906C77.4844 66.7344 77.4141 66.5391 77.4141 66.3047ZM80.9531 72.7031C80.9531 71.3854 81.2578 70.3385 81.8672 69.5625C82.4766 68.7812 83.2839 68.3906 84.2891 68.3906C85.3203 68.3906 86.125 68.7552 86.7031 69.4844L86.7734 68.5469H88.0938V76.7969C88.0938 77.8906 87.7682 78.7526 87.1172 79.3828C86.4714 80.013 85.6016 80.3281 84.5078 80.3281C83.8984 80.3281 83.3021 80.1979 82.7188 79.9375C82.1354 79.6771 81.6901 79.3203 81.3828 78.8672L82.1328 78C82.7526 78.7656 83.5104 79.1484 84.4062 79.1484C85.1094 79.1484 85.6562 78.9505 86.0469 78.5547C86.4427 78.1589 86.6406 77.6016 86.6406 76.8828V76.1562C86.0625 76.8229 85.2734 77.1562 84.2734 77.1562C83.2839 77.1562 82.4818 76.7578 81.8672 75.9609C81.2578 75.1641 80.9531 74.0781 80.9531 72.7031ZM82.4062 72.8672C82.4062 73.8203 82.6016 74.5703 82.9922 75.1172C83.3828 75.6589 83.9297 75.9297 84.6328 75.9297C85.5443 75.9297 86.2135 75.5156 86.6406 74.6875V70.8281C86.1979 70.0208 85.5339 69.6172 84.6484 69.6172C83.9453 69.6172 83.3958 69.8906 83 70.4375C82.6042 70.9844 82.4062 71.7943 82.4062 72.8672ZM91.6484 68.5469L91.6953 69.6094C92.3411 68.7969 93.1849 68.3906 94.2266 68.3906C96.013 68.3906 96.9141 69.3984 96.9297 71.4141V77H95.4844V71.4062C95.4792 70.7969 95.3385 70.3464 95.0625 70.0547C94.7917 69.763 94.3672 69.6172 93.7891 69.6172C93.3203 69.6172 92.9089 69.7422 92.5547 69.9922C92.2005 70.2422 91.9245 70.5703 91.7266 70.9766V77H90.2812V68.5469H91.6484ZM102.617 77.1562C101.471 77.1562 100.539 76.7812 99.8203 76.0312C99.1016 75.276 98.7422 74.2682 98.7422 73.0078V72.7422C98.7422 71.9036 98.901 71.1562 99.2188 70.5C99.5417 69.8385 99.9896 69.3229 100.562 68.9531C101.141 68.5781 101.766 68.3906 102.438 68.3906C103.536 68.3906 104.391 68.7526 105 69.4766C105.609 70.2005 105.914 71.237 105.914 72.5859V73.1875H100.188C100.208 74.0208 100.451 74.6953 100.914 75.2109C101.383 75.7214 101.977 75.9766 102.695 75.9766C103.206 75.9766 103.638 75.8724 103.992 75.6641C104.346 75.4557 104.656 75.1797 104.922 74.8359L105.805 75.5234C105.096 76.612 104.034 77.1562 102.617 77.1562ZM102.438 69.5781C101.854 69.5781 101.365 69.7917 100.969 70.2188C100.573 70.6406 100.328 71.2344 100.234 72H104.469V71.8906C104.427 71.1562 104.229 70.5885 103.875 70.1875C103.521 69.7812 103.042 69.5781 102.438 69.5781ZM111.68 69.8438C111.461 69.8073 111.224 69.7891 110.969 69.7891C110.021 69.7891 109.378 70.1927 109.039 71V77H107.594V68.5469H109L109.023 69.5234C109.497 68.7682 110.169 68.3906 111.039 68.3906C111.32 68.3906 111.534 68.4271 111.68 68.5V69.8438Z" fill="#222222"/>
	<path d="M80.5684 24.6123C80.5684 26.4521 80.2227 27.8408 79.5312 28.7783C78.8457 29.71 77.7998 30.1758 76.3936 30.1758C75.0107 30.1758 73.9678 29.7217 73.2646 28.8135C72.5674 27.8994 72.21 26.5488 72.1924 24.7617V22.5469C72.1924 20.707 72.5352 19.3271 73.2207 18.4072C73.9121 17.4873 74.9639 17.0273 76.376 17.0273C77.7764 17.0273 78.8193 17.4756 79.5049 18.3721C80.1963 19.2686 80.5508 20.6104 80.5684 22.3975V24.6123ZM78.4326 22.2217C78.4326 21.0205 78.2686 20.1416 77.9404 19.585C77.6123 19.0225 77.0908 18.7412 76.376 18.7412C75.6787 18.7412 75.166 19.0078 74.8379 19.541C74.5098 20.0684 74.3369 20.8945 74.3193 22.0195V24.9199C74.3193 26.1152 74.4863 27.0059 74.8203 27.5918C75.1543 28.1777 75.6787 28.4707 76.3936 28.4707C77.0791 28.4707 77.5859 28.2012 77.9141 27.6621C78.2422 27.1172 78.415 26.2676 78.4326 25.1133V22.2217ZM88.2412 30H86.1143V19.7256L82.9766 20.7979V18.9961L87.9688 17.1592H88.2412V30Z" fill="#97D302"/>
	<path d="M247.568 24.6123C247.568 26.4521 247.223 27.8408 246.531 28.7783C245.846 29.71 244.8 30.1758 243.394 30.1758C242.011 30.1758 240.968 29.7217 240.265 28.8135C239.567 27.8994 239.21 26.5488 239.192 24.7617V22.5469C239.192 20.707 239.535 19.3271 240.221 18.4072C240.912 17.4873 241.964 17.0273 243.376 17.0273C244.776 17.0273 245.819 17.4756 246.505 18.3721C247.196 19.2686 247.551 20.6104 247.568 22.3975V24.6123ZM245.433 22.2217C245.433 21.0205 245.269 20.1416 244.94 19.585C244.612 19.0225 244.091 18.7412 243.376 18.7412C242.679 18.7412 242.166 19.0078 241.838 19.541C241.51 20.0684 241.337 20.8945 241.319 22.0195V24.9199C241.319 26.1152 241.486 27.0059 241.82 27.5918C242.154 28.1777 242.679 28.4707 243.394 28.4707C244.079 28.4707 244.586 28.2012 244.914 27.6621C245.242 27.1172 245.415 26.2676 245.433 25.1133V22.2217ZM258.062 30H249.458V28.5322L253.721 23.8828C254.336 23.1973 254.772 22.626 255.03 22.1689C255.294 21.7061 255.426 21.2432 255.426 20.7803C255.426 20.1709 255.253 19.6787 254.907 19.3037C254.567 18.9287 254.107 18.7412 253.527 18.7412C252.836 18.7412 252.3 18.9521 251.919 19.374C251.538 19.7959 251.348 20.373 251.348 21.1055H249.212C249.212 20.3262 249.388 19.626 249.739 19.0049C250.097 18.3779 250.604 17.8916 251.26 17.5459C251.922 17.2002 252.684 17.0273 253.545 17.0273C254.787 17.0273 255.766 17.3408 256.48 17.9678C257.201 18.5889 257.562 19.4502 257.562 20.5518C257.562 21.1904 257.38 21.8613 257.017 22.5645C256.659 23.2617 256.07 24.0557 255.25 24.9463L252.121 28.2949H258.062V30Z" fill="#00D680"/>
	<path d="M412.568 24.6123C412.568 26.4521 412.223 27.8408 411.531 28.7783C410.846 29.71 409.8 30.1758 408.394 30.1758C407.011 30.1758 405.968 29.7217 405.265 28.8135C404.567 27.8994 404.21 26.5488 404.192 24.7617V22.5469C404.192 20.707 404.535 19.3271 405.221 18.4072C405.912 17.4873 406.964 17.0273 408.376 17.0273C409.776 17.0273 410.819 17.4756 411.505 18.3721C412.196 19.2686 412.551 20.6104 412.568 22.3975V24.6123ZM410.433 22.2217C410.433 21.0205 410.269 20.1416 409.94 19.585C409.612 19.0225 409.091 18.7412 408.376 18.7412C407.679 18.7412 407.166 19.0078 406.838 19.541C406.51 20.0684 406.337 20.8945 406.319 22.0195V24.9199C406.319 26.1152 406.486 27.0059 406.82 27.5918C407.154 28.1777 407.679 28.4707 408.394 28.4707C409.079 28.4707 409.586 28.2012 409.914 27.6621C410.242 27.1172 410.415 26.2676 410.433 25.1133V22.2217ZM416.928 22.626H418.229C418.885 22.6201 419.403 22.4502 419.784 22.1162C420.171 21.7822 420.364 21.2988 420.364 20.666C420.364 20.0566 420.203 19.585 419.881 19.251C419.564 18.9111 419.078 18.7412 418.422 18.7412C417.848 18.7412 417.376 18.9082 417.007 19.2422C416.638 19.5703 416.453 20.001 416.453 20.5342H414.317C414.317 19.8779 414.49 19.2803 414.836 18.7412C415.188 18.2021 415.674 17.7832 416.295 17.4844C416.922 17.1797 417.622 17.0273 418.396 17.0273C419.673 17.0273 420.675 17.3496 421.401 17.9941C422.134 18.6328 422.5 19.5234 422.5 20.666C422.5 21.2402 422.315 21.7822 421.946 22.292C421.583 22.7959 421.111 23.1768 420.531 23.4346C421.234 23.6748 421.768 24.0527 422.131 24.5684C422.5 25.084 422.685 25.6992 422.685 26.4141C422.685 27.5625 422.289 28.4766 421.498 29.1562C420.713 29.8359 419.679 30.1758 418.396 30.1758C417.165 30.1758 416.157 29.8477 415.372 29.1914C414.587 28.5352 414.194 27.6621 414.194 26.5723H416.33C416.33 27.1348 416.518 27.5918 416.893 27.9434C417.273 28.2949 417.783 28.4707 418.422 28.4707C419.084 28.4707 419.605 28.2949 419.986 27.9434C420.367 27.5918 420.558 27.082 420.558 26.4141C420.558 25.7402 420.358 25.2217 419.96 24.8584C419.562 24.4951 418.97 24.3135 418.185 24.3135H416.928V22.626Z" fill="#01DBDD"/>
	<path d="M18.4388 29.1637C25.2249 18.5667 36.5283 10.0545 50.4862 5.02993C64.444 0.00534254 80.2233 -1.23176 95.2234 1.52251C110.223 4.27678 123.549 10.8581 133.005 20.1817C142.46 29.5053 147.48 41.0148 147.238 52.8135C146.997 64.6121 141.507 75.9956 131.675 85.088C121.842 94.1803 108.253 100.439 93.1474 102.832C78.0418 105.225 62.321 103.611 48.5759 98.2539C34.8308 92.8972 23.8817 84.1182 17.5331 73.3637L23.7181 71.2273C29.4318 80.9063 39.286 88.8075 51.6566 93.6285C64.0272 98.4496 78.1759 99.9029 91.771 97.7489C105.366 95.595 117.596 89.9623 126.445 81.7792C135.295 73.596 140.235 63.3508 140.453 52.7321C140.671 42.1134 136.152 31.7548 127.642 23.3635C119.133 14.9722 107.139 9.04909 93.6394 6.57025C80.1393 4.0914 65.9379 5.2048 53.3759 9.72693C40.8138 14.2491 30.6408 21.9101 24.5333 31.4473L18.4388 29.1637Z" fill="#97D302"/>
	<path d="M30 51.7358L7.5 65.131L7.5 38.3406L30 51.7358Z" fill="#97D302"/>
	<path d="M230.547 44.9297C229.26 44.5599 228.323 44.1068 227.734 43.5703C227.151 43.0286 226.859 42.362 226.859 41.5703C226.859 40.6745 227.216 39.9349 227.93 39.3516C228.648 38.763 229.581 38.4688 230.727 38.4688C231.508 38.4688 232.203 38.6198 232.812 38.9219C233.427 39.224 233.901 39.6406 234.234 40.1719C234.573 40.7031 234.742 41.2839 234.742 41.9141H233.234C233.234 41.2266 233.016 40.6875 232.578 40.2969C232.141 39.901 231.523 39.7031 230.727 39.7031C229.987 39.7031 229.409 39.8672 228.992 40.1953C228.581 40.5182 228.375 40.9688 228.375 41.5469C228.375 42.0104 228.57 42.4036 228.961 42.7266C229.357 43.0443 230.026 43.3359 230.969 43.6016C231.917 43.8672 232.656 44.1615 233.188 44.4844C233.724 44.8021 234.12 45.1745 234.375 45.6016C234.635 46.0286 234.766 46.5312 234.766 47.1094C234.766 48.0312 234.406 48.7708 233.688 49.3281C232.969 49.8802 232.008 50.1562 230.805 50.1562C230.023 50.1562 229.294 50.0078 228.617 49.7109C227.94 49.4089 227.417 48.9974 227.047 48.4766C226.682 47.9557 226.5 47.3646 226.5 46.7031H228.008C228.008 47.3906 228.26 47.9349 228.766 48.3359C229.276 48.7318 229.956 48.9297 230.805 48.9297C231.596 48.9297 232.203 48.7682 232.625 48.4453C233.047 48.1224 233.258 47.6823 233.258 47.125C233.258 46.5677 233.062 46.138 232.672 45.8359C232.281 45.5286 231.573 45.2266 230.547 44.9297ZM239.977 50.1562C238.831 50.1562 237.898 49.7812 237.18 49.0312C236.461 48.276 236.102 47.2682 236.102 46.0078V45.7422C236.102 44.9036 236.26 44.1562 236.578 43.5C236.901 42.8385 237.349 42.3229 237.922 41.9531C238.5 41.5781 239.125 41.3906 239.797 41.3906C240.896 41.3906 241.75 41.7526 242.359 42.4766C242.969 43.2005 243.273 44.237 243.273 45.5859V46.1875H237.547C237.568 47.0208 237.81 47.6953 238.273 48.2109C238.742 48.7214 239.336 48.9766 240.055 48.9766C240.565 48.9766 240.997 48.8724 241.352 48.6641C241.706 48.4557 242.016 48.1797 242.281 47.8359L243.164 48.5234C242.456 49.612 241.393 50.1562 239.977 50.1562ZM239.797 42.5781C239.214 42.5781 238.724 42.7917 238.328 43.2188C237.932 43.6406 237.688 44.2344 237.594 45H241.828V44.8906C241.786 44.1562 241.589 43.5885 241.234 43.1875C240.88 42.7812 240.401 42.5781 239.797 42.5781ZM246.32 41.5469L246.367 42.6094C247.013 41.7969 247.857 41.3906 248.898 41.3906C250.685 41.3906 251.586 42.3984 251.602 44.4141V50H250.156V44.4062C250.151 43.7969 250.01 43.3464 249.734 43.0547C249.464 42.763 249.039 42.6172 248.461 42.6172C247.992 42.6172 247.581 42.7422 247.227 42.9922C246.872 43.2422 246.596 43.5703 246.398 43.9766V50H244.953V41.5469H246.32ZM255.352 50H253.906V41.5469H255.352V50ZM253.789 39.3047C253.789 39.0703 253.859 38.8724 254 38.7109C254.146 38.5495 254.359 38.4688 254.641 38.4688C254.922 38.4688 255.135 38.5495 255.281 38.7109C255.427 38.8724 255.5 39.0703 255.5 39.3047C255.5 39.5391 255.427 39.7344 255.281 39.8906C255.135 40.0469 254.922 40.125 254.641 40.125C254.359 40.125 254.146 40.0469 254 39.8906C253.859 39.7344 253.789 39.5391 253.789 39.3047ZM257.289 45.6953C257.289 44.8672 257.451 44.1224 257.773 43.4609C258.102 42.7995 258.555 42.2891 259.133 41.9297C259.716 41.5703 260.38 41.3906 261.125 41.3906C262.276 41.3906 263.206 41.7891 263.914 42.5859C264.628 43.3828 264.984 44.4427 264.984 45.7656V45.8672C264.984 46.6901 264.826 47.4297 264.508 48.0859C264.195 48.737 263.745 49.2448 263.156 49.6094C262.573 49.974 261.901 50.1562 261.141 50.1562C259.995 50.1562 259.065 49.7578 258.352 48.9609C257.643 48.1641 257.289 47.1094 257.289 45.7969V45.6953ZM258.742 45.8672C258.742 46.8047 258.958 47.5573 259.391 48.125C259.828 48.6927 260.411 48.9766 261.141 48.9766C261.875 48.9766 262.458 48.6901 262.891 48.1172C263.323 47.5391 263.539 46.7318 263.539 45.6953C263.539 44.7682 263.318 44.0182 262.875 43.4453C262.438 42.8672 261.854 42.5781 261.125 42.5781C260.411 42.5781 259.836 42.862 259.398 43.4297C258.961 43.9974 258.742 44.8099 258.742 45.8672ZM270.883 42.8438C270.664 42.8073 270.427 42.7891 270.172 42.7891C269.224 42.7891 268.581 43.1927 268.242 44V50H266.797V41.5469H268.203L268.227 42.5234C268.701 41.7682 269.372 41.3906 270.242 41.3906C270.523 41.3906 270.737 41.4271 270.883 41.5V42.8438ZM230.828 66.5078C230.443 67.0599 229.904 67.474 229.211 67.75C228.523 68.0208 227.721 68.1562 226.805 68.1562C225.878 68.1562 225.055 67.9401 224.336 67.5078C223.617 67.0703 223.06 66.4505 222.664 65.6484C222.273 64.8464 222.073 63.9167 222.062 62.8594V61.8672C222.062 60.1536 222.461 58.8255 223.258 57.8828C224.06 56.9401 225.185 56.4688 226.633 56.4688C227.82 56.4688 228.776 56.7734 229.5 57.3828C230.224 57.987 230.667 58.8464 230.828 59.9609H229.328C229.047 58.4557 228.151 57.7031 226.641 57.7031C225.635 57.7031 224.872 58.0573 224.352 58.7656C223.836 59.4688 223.576 60.4896 223.57 61.8281V62.7578C223.57 64.0339 223.862 65.0495 224.445 65.8047C225.029 66.5547 225.818 66.9297 226.812 66.9297C227.375 66.9297 227.867 66.8672 228.289 66.7422C228.711 66.6172 229.06 66.4062 229.336 66.1094V63.5547H226.703V62.3359H230.828V66.5078ZM237.195 60.8438C236.977 60.8073 236.74 60.7891 236.484 60.7891C235.536 60.7891 234.893 61.1927 234.555 62V68H233.109V59.5469H234.516L234.539 60.5234C235.013 59.7682 235.685 59.3906 236.555 59.3906C236.836 59.3906 237.049 59.4271 237.195 59.5V60.8438ZM243.438 68C243.354 67.8333 243.286 67.5365 243.234 67.1094C242.562 67.8073 241.76 68.1562 240.828 68.1562C239.995 68.1562 239.31 67.9219 238.773 67.4531C238.242 66.9792 237.977 66.3802 237.977 65.6562C237.977 64.776 238.31 64.0938 238.977 63.6094C239.648 63.1198 240.591 62.875 241.805 62.875H243.211V62.2109C243.211 61.7057 243.06 61.3047 242.758 61.0078C242.456 60.7057 242.01 60.5547 241.422 60.5547C240.906 60.5547 240.474 60.6849 240.125 60.9453C239.776 61.2057 239.602 61.5208 239.602 61.8906H238.148C238.148 61.4688 238.297 61.0625 238.594 60.6719C238.896 60.276 239.302 59.9635 239.812 59.7344C240.328 59.5052 240.893 59.3906 241.508 59.3906C242.482 59.3906 243.245 59.6354 243.797 60.125C244.349 60.6094 244.635 61.2786 244.656 62.1328V66.0234C244.656 66.7995 244.755 67.4167 244.953 67.875V68H243.438ZM241.039 66.8984C241.492 66.8984 241.922 66.7812 242.328 66.5469C242.734 66.3125 243.029 66.0078 243.211 65.6328V63.8984H242.078C240.307 63.8984 239.422 64.4167 239.422 65.4531C239.422 65.9062 239.573 66.2604 239.875 66.5156C240.177 66.7708 240.565 66.8984 241.039 66.8984ZM254.062 63.8672C254.062 65.1536 253.768 66.1901 253.18 66.9766C252.591 67.763 251.794 68.1562 250.789 68.1562C249.763 68.1562 248.956 67.8307 248.367 67.1797V71.25H246.922V59.5469H248.242L248.312 60.4844C248.901 59.7552 249.719 59.3906 250.766 59.3906C251.781 59.3906 252.583 59.7734 253.172 60.5391C253.766 61.3047 254.062 62.3698 254.062 63.7344V63.8672ZM252.617 63.7031C252.617 62.75 252.414 61.9974 252.008 61.4453C251.602 60.8932 251.044 60.6172 250.336 60.6172C249.461 60.6172 248.805 61.0052 248.367 61.7812V65.8203C248.799 66.5911 249.461 66.9766 250.352 66.9766C251.044 66.9766 251.594 66.7031 252 66.1562C252.411 65.6042 252.617 64.7865 252.617 63.7031ZM257.352 60.5703C257.992 59.7839 258.826 59.3906 259.852 59.3906C261.638 59.3906 262.539 60.3984 262.555 62.4141V68H261.109V62.4062C261.104 61.7969 260.964 61.3464 260.688 61.0547C260.417 60.763 259.992 60.6172 259.414 60.6172C258.945 60.6172 258.534 60.7422 258.18 60.9922C257.826 61.2422 257.549 61.5703 257.352 61.9766V68H255.906V56H257.352V60.5703ZM266.289 68H264.844V59.5469H266.289V68ZM264.727 57.3047C264.727 57.0703 264.797 56.8724 264.938 56.7109C265.083 56.5495 265.297 56.4688 265.578 56.4688C265.859 56.4688 266.073 56.5495 266.219 56.7109C266.365 56.8724 266.438 57.0703 266.438 57.3047C266.438 57.5391 266.365 57.7344 266.219 57.8906C266.073 58.0469 265.859 58.125 265.578 58.125C265.297 58.125 265.083 58.0469 264.938 57.8906C264.797 57.7344 264.727 57.5391 264.727 57.3047ZM272 66.9766C272.516 66.9766 272.966 66.8203 273.352 66.5078C273.737 66.1953 273.951 65.8047 273.992 65.3359H275.359C275.333 65.8203 275.167 66.2812 274.859 66.7188C274.552 67.1562 274.141 67.5052 273.625 67.7656C273.115 68.026 272.573 68.1562 272 68.1562C270.849 68.1562 269.932 67.7734 269.25 67.0078C268.573 66.237 268.234 65.1849 268.234 63.8516V63.6094C268.234 62.7865 268.385 62.0547 268.688 61.4141C268.99 60.7734 269.422 60.276 269.984 59.9219C270.552 59.5677 271.221 59.3906 271.992 59.3906C272.94 59.3906 273.727 59.6745 274.352 60.2422C274.982 60.8099 275.318 61.5469 275.359 62.4531H273.992C273.951 61.9062 273.742 61.4583 273.367 61.1094C272.997 60.7552 272.539 60.5781 271.992 60.5781C271.258 60.5781 270.688 60.8438 270.281 61.375C269.88 61.901 269.68 62.6641 269.68 63.6641V63.9375C269.68 64.9115 269.88 65.6615 270.281 66.1875C270.682 66.7135 271.255 66.9766 272 66.9766ZM218.398 86V74.625H221.609C222.599 74.625 223.474 74.8438 224.234 75.2812C224.995 75.7188 225.581 76.3411 225.992 77.1484C226.409 77.9557 226.62 78.8828 226.625 79.9297V80.6562C226.625 81.7292 226.417 82.6693 226 83.4766C225.589 84.2839 224.997 84.9036 224.227 85.3359C223.461 85.7682 222.568 85.9896 221.547 86H218.398ZM219.898 75.8594V84.7734H221.477C222.633 84.7734 223.531 84.4141 224.172 83.6953C224.818 82.9766 225.141 81.9531 225.141 80.625V79.9609C225.141 78.6693 224.836 77.6667 224.227 76.9531C223.622 76.2344 222.763 75.8698 221.648 75.8594H219.898ZM232.18 86.1562C231.034 86.1562 230.102 85.7812 229.383 85.0312C228.664 84.276 228.305 83.2682 228.305 82.0078V81.7422C228.305 80.9036 228.464 80.1562 228.781 79.5C229.104 78.8385 229.552 78.3229 230.125 77.9531C230.703 77.5781 231.328 77.3906 232 77.3906C233.099 77.3906 233.953 77.7526 234.562 78.4766C235.172 79.2005 235.477 80.237 235.477 81.5859V82.1875H229.75C229.771 83.0208 230.013 83.6953 230.477 84.2109C230.945 84.7214 231.539 84.9766 232.258 84.9766C232.768 84.9766 233.201 84.8724 233.555 84.6641C233.909 84.4557 234.219 84.1797 234.484 83.8359L235.367 84.5234C234.659 85.612 233.596 86.1562 232.18 86.1562ZM232 78.5781C231.417 78.5781 230.927 78.7917 230.531 79.2188C230.135 79.6406 229.891 80.2344 229.797 81H234.031V80.8906C233.99 80.1562 233.792 79.5885 233.438 79.1875C233.083 78.7812 232.604 78.5781 232 78.5781ZM242.078 83.7578C242.078 83.3672 241.93 83.0651 241.633 82.8516C241.341 82.6328 240.828 82.4453 240.094 82.2891C239.365 82.1328 238.784 81.9453 238.352 81.7266C237.924 81.5078 237.607 81.2474 237.398 80.9453C237.195 80.6432 237.094 80.2839 237.094 79.8672C237.094 79.1745 237.385 78.5885 237.969 78.1094C238.557 77.6302 239.307 77.3906 240.219 77.3906C241.177 77.3906 241.953 77.638 242.547 78.1328C243.146 78.6276 243.445 79.2604 243.445 80.0312H241.992C241.992 79.6354 241.823 79.2943 241.484 79.0078C241.151 78.7214 240.729 78.5781 240.219 78.5781C239.693 78.5781 239.281 78.6927 238.984 78.9219C238.688 79.151 238.539 79.4505 238.539 79.8203C238.539 80.1693 238.677 80.4323 238.953 80.6094C239.229 80.7865 239.727 80.9557 240.445 81.1172C241.169 81.2786 241.755 81.4714 242.203 81.6953C242.651 81.9193 242.982 82.1901 243.195 82.5078C243.414 82.8203 243.523 83.2031 243.523 83.6562C243.523 84.4115 243.221 85.0182 242.617 85.4766C242.013 85.9297 241.229 86.1562 240.266 86.1562C239.589 86.1562 238.99 86.0365 238.469 85.7969C237.948 85.5573 237.539 85.224 237.242 84.7969C236.951 84.3646 236.805 83.8984 236.805 83.3984H238.25C238.276 83.8828 238.469 84.2682 238.828 84.5547C239.193 84.8359 239.672 84.9766 240.266 84.9766C240.812 84.9766 241.25 84.8672 241.578 84.6484C241.911 84.4245 242.078 84.1276 242.078 83.7578ZM246.977 86H245.531V77.5469H246.977V86ZM245.414 75.3047C245.414 75.0703 245.484 74.8724 245.625 74.7109C245.771 74.5495 245.984 74.4688 246.266 74.4688C246.547 74.4688 246.76 74.5495 246.906 74.7109C247.052 74.8724 247.125 75.0703 247.125 75.3047C247.125 75.5391 247.052 75.7344 246.906 75.8906C246.76 76.0469 246.547 76.125 246.266 76.125C245.984 76.125 245.771 76.0469 245.625 75.8906C245.484 75.7344 245.414 75.5391 245.414 75.3047ZM248.953 81.7031C248.953 80.3854 249.258 79.3385 249.867 78.5625C250.477 77.7812 251.284 77.3906 252.289 77.3906C253.32 77.3906 254.125 77.7552 254.703 78.4844L254.773 77.5469H256.094V85.7969C256.094 86.8906 255.768 87.7526 255.117 88.3828C254.471 89.013 253.602 89.3281 252.508 89.3281C251.898 89.3281 251.302 89.1979 250.719 88.9375C250.135 88.6771 249.69 88.3203 249.383 87.8672L250.133 87C250.753 87.7656 251.51 88.1484 252.406 88.1484C253.109 88.1484 253.656 87.9505 254.047 87.5547C254.443 87.1589 254.641 86.6016 254.641 85.8828V85.1562C254.062 85.8229 253.273 86.1562 252.273 86.1562C251.284 86.1562 250.482 85.7578 249.867 84.9609C249.258 84.1641 248.953 83.0781 248.953 81.7031ZM250.406 81.8672C250.406 82.8203 250.602 83.5703 250.992 84.1172C251.383 84.6589 251.93 84.9297 252.633 84.9297C253.544 84.9297 254.214 84.5156 254.641 83.6875V79.8281C254.198 79.0208 253.534 78.6172 252.648 78.6172C251.945 78.6172 251.396 78.8906 251 79.4375C250.604 79.9844 250.406 80.7943 250.406 81.8672ZM259.648 77.5469L259.695 78.6094C260.341 77.7969 261.185 77.3906 262.227 77.3906C264.013 77.3906 264.914 78.3984 264.93 80.4141V86H263.484V80.4062C263.479 79.7969 263.339 79.3464 263.062 79.0547C262.792 78.763 262.367 78.6172 261.789 78.6172C261.32 78.6172 260.909 78.7422 260.555 78.9922C260.201 79.2422 259.924 79.5703 259.727 79.9766V86H258.281V77.5469H259.648ZM270.617 86.1562C269.471 86.1562 268.539 85.7812 267.82 85.0312C267.102 84.276 266.742 83.2682 266.742 82.0078V81.7422C266.742 80.9036 266.901 80.1562 267.219 79.5C267.542 78.8385 267.99 78.3229 268.562 77.9531C269.141 77.5781 269.766 77.3906 270.438 77.3906C271.536 77.3906 272.391 77.7526 273 78.4766C273.609 79.2005 273.914 80.237 273.914 81.5859V82.1875H268.188C268.208 83.0208 268.451 83.6953 268.914 84.2109C269.383 84.7214 269.977 84.9766 270.695 84.9766C271.206 84.9766 271.638 84.8724 271.992 84.6641C272.346 84.4557 272.656 84.1797 272.922 83.8359L273.805 84.5234C273.096 85.612 272.034 86.1562 270.617 86.1562ZM270.438 78.5781C269.854 78.5781 269.365 78.7917 268.969 79.2188C268.573 79.6406 268.328 80.2344 268.234 81H272.469V80.8906C272.427 80.1562 272.229 79.5885 271.875 79.1875C271.521 78.7812 271.042 78.5781 270.438 78.5781ZM279.68 78.8438C279.461 78.8073 279.224 78.7891 278.969 78.7891C278.021 78.7891 277.378 79.1927 277.039 80V86H275.594V77.5469H277L277.023 78.5234C277.497 77.7682 278.169 77.3906 279.039 77.3906C279.32 77.3906 279.534 77.4271 279.68 77.5V78.8438Z" fill="#222222"/>
	<path d="M185.439 29.1637C192.225 18.5667 203.528 10.0545 217.486 5.02993C231.444 0.00534254 247.223 -1.23176 262.223 1.52251C277.223 4.27678 290.549 10.8581 300.005 20.1817C309.46 29.5053 314.48 41.0148 314.238 52.8135C313.997 64.6121 308.507 75.9956 298.675 85.088C288.842 94.1803 275.253 100.439 260.147 102.832C245.042 105.225 229.321 103.611 215.576 98.2539C201.831 92.8972 190.882 84.1182 184.533 73.3637L190.718 71.2273C196.432 80.9063 206.286 88.8075 218.657 93.6285C231.027 98.4496 245.176 99.9029 258.771 97.7489C272.366 95.595 284.596 89.9623 293.445 81.7792C302.295 73.596 307.235 63.3508 307.453 52.7321C307.671 42.1134 303.152 31.7548 294.642 23.3635C286.133 14.9722 274.139 9.04909 260.639 6.57025C247.139 4.0914 232.938 5.2048 220.376 9.72693C207.814 14.2491 197.641 21.9101 191.533 31.4473L185.439 29.1637Z" fill="#00D680"/>
	<path d="M197 51.7358L174.5 65.131L174.5 38.3406L197 51.7358Z" fill="#00D680"/>
	<path d="M397.73 53.9297C396.444 53.5599 395.506 53.1068 394.917 52.5703C394.334 52.0286 394.042 51.362 394.042 50.5703C394.042 49.6745 394.399 48.9349 395.113 48.3516C395.832 47.763 396.764 47.4688 397.91 47.4688C398.691 47.4688 399.386 47.6198 399.996 47.9219C400.61 48.224 401.084 48.6406 401.417 49.1719C401.756 49.7031 401.925 50.2839 401.925 50.9141H400.417C400.417 50.2266 400.199 49.6875 399.761 49.2969C399.324 48.901 398.707 48.7031 397.91 48.7031C397.17 48.7031 396.592 48.8672 396.175 49.1953C395.764 49.5182 395.558 49.9688 395.558 50.5469C395.558 51.0104 395.753 51.4036 396.144 51.7266C396.54 52.0443 397.209 52.3359 398.152 52.6016C399.1 52.8672 399.839 53.1615 400.371 53.4844C400.907 53.8021 401.303 54.1745 401.558 54.6016C401.819 55.0286 401.949 55.5312 401.949 56.1094C401.949 57.0312 401.589 57.7708 400.871 58.3281C400.152 58.8802 399.191 59.1562 397.988 59.1562C397.207 59.1562 396.477 59.0078 395.8 58.7109C395.123 58.4089 394.6 57.9974 394.23 57.4766C393.865 56.9557 393.683 56.3646 393.683 55.7031H395.191C395.191 56.3906 395.444 56.9349 395.949 57.3359C396.459 57.7318 397.139 57.9297 397.988 57.9297C398.779 57.9297 399.386 57.7682 399.808 57.4453C400.23 57.1224 400.441 56.6823 400.441 56.125C400.441 55.5677 400.246 55.138 399.855 54.8359C399.464 54.5286 398.756 54.2266 397.73 53.9297ZM405.613 48.5V50.5469H407.191V51.6641H405.613V56.9062C405.613 57.2448 405.683 57.5 405.824 57.6719C405.964 57.8385 406.204 57.9219 406.542 57.9219C406.709 57.9219 406.938 57.8906 407.23 57.8281V59C406.85 59.1042 406.48 59.1562 406.121 59.1562C405.475 59.1562 404.988 58.9609 404.66 58.5703C404.332 58.1797 404.167 57.625 404.167 56.9062V51.6641H402.628V50.5469H404.167V48.5H405.613ZM414.105 58.1641C413.542 58.8255 412.717 59.1562 411.628 59.1562C410.727 59.1562 410.04 58.8958 409.566 58.375C409.097 57.849 408.86 57.0729 408.855 56.0469V50.5469H410.3V56.0078C410.3 57.2891 410.821 57.9297 411.863 57.9297C412.967 57.9297 413.701 57.5182 414.066 56.6953V50.5469H415.511V59H414.136L414.105 58.1641ZM417.363 54.7031C417.363 53.4062 417.67 52.3646 418.285 51.5781C418.899 50.7865 419.704 50.3906 420.699 50.3906C421.688 50.3906 422.472 50.7292 423.05 51.4062V47H424.496V59H423.167L423.097 58.0938C422.519 58.8021 421.714 59.1562 420.683 59.1562C419.704 59.1562 418.904 58.7552 418.285 57.9531C417.67 57.151 417.363 56.1042 417.363 54.8125V54.7031ZM418.808 54.8672C418.808 55.8255 419.006 56.5755 419.402 57.1172C419.798 57.6589 420.345 57.9297 421.042 57.9297C421.959 57.9297 422.628 57.5182 423.05 56.6953V52.8125C422.618 52.0156 421.954 51.6172 421.058 51.6172C420.35 51.6172 419.798 51.8906 419.402 52.4375C419.006 52.9844 418.808 53.7943 418.808 54.8672ZM428.316 59H426.871V50.5469H428.316V59ZM426.753 48.3047C426.753 48.0703 426.824 47.8724 426.964 47.7109C427.11 47.5495 427.324 47.4688 427.605 47.4688C427.886 47.4688 428.1 47.5495 428.246 47.7109C428.391 47.8724 428.464 48.0703 428.464 48.3047C428.464 48.5391 428.391 48.7344 428.246 48.8906C428.1 49.0469 427.886 49.125 427.605 49.125C427.324 49.125 427.11 49.0469 426.964 48.8906C426.824 48.7344 426.753 48.5391 426.753 48.3047ZM430.253 54.6953C430.253 53.8672 430.415 53.1224 430.738 52.4609C431.066 51.7995 431.519 51.2891 432.097 50.9297C432.681 50.5703 433.345 50.3906 434.089 50.3906C435.24 50.3906 436.17 50.7891 436.878 51.5859C437.592 52.3828 437.949 53.4427 437.949 54.7656V54.8672C437.949 55.6901 437.79 56.4297 437.472 57.0859C437.16 57.737 436.709 58.2448 436.121 58.6094C435.537 58.974 434.865 59.1562 434.105 59.1562C432.959 59.1562 432.029 58.7578 431.316 57.9609C430.608 57.1641 430.253 56.1094 430.253 54.7969V54.6953ZM431.707 54.8672C431.707 55.8047 431.923 56.5573 432.355 57.125C432.792 57.6927 433.376 57.9766 434.105 57.9766C434.839 57.9766 435.423 57.6901 435.855 57.1172C436.287 56.5391 436.503 55.7318 436.503 54.6953C436.503 53.7682 436.282 53.0182 435.839 52.4453C435.402 51.8672 434.819 51.5781 434.089 51.5781C433.376 51.5781 432.8 51.862 432.363 52.4297C431.925 52.9974 431.707 53.8099 431.707 54.8672ZM387.574 65.625L391.292 74.9062L395.011 65.625H396.957V77H395.457V72.5703L395.597 67.7891L391.863 77H390.714L386.988 67.8125L387.136 72.5703V77H385.636V65.625H387.574ZM404.597 77C404.514 76.8333 404.446 76.5365 404.394 76.1094C403.722 76.8073 402.92 77.1562 401.988 77.1562C401.154 77.1562 400.47 76.9219 399.933 76.4531C399.402 75.9792 399.136 75.3802 399.136 74.6562C399.136 73.776 399.47 73.0938 400.136 72.6094C400.808 72.1198 401.751 71.875 402.964 71.875H404.371V71.2109C404.371 70.7057 404.22 70.3047 403.917 70.0078C403.615 69.7057 403.17 69.5547 402.582 69.5547C402.066 69.5547 401.634 69.6849 401.285 69.9453C400.936 70.2057 400.761 70.5208 400.761 70.8906H399.308C399.308 70.4688 399.457 70.0625 399.753 69.6719C400.056 69.276 400.462 68.9635 400.972 68.7344C401.488 68.5052 402.053 68.3906 402.667 68.3906C403.641 68.3906 404.404 68.6354 404.957 69.125C405.509 69.6094 405.795 70.2786 405.816 71.1328V75.0234C405.816 75.7995 405.915 76.4167 406.113 76.875V77H404.597ZM402.199 75.8984C402.652 75.8984 403.082 75.7812 403.488 75.5469C403.894 75.3125 404.188 75.0078 404.371 74.6328V72.8984H403.238C401.467 72.8984 400.582 73.4167 400.582 74.4531C400.582 74.9062 400.733 75.2604 401.035 75.5156C401.337 75.7708 401.725 75.8984 402.199 75.8984ZM409.449 68.5469L409.496 69.6094C410.141 68.7969 410.985 68.3906 412.027 68.3906C413.813 68.3906 414.714 69.3984 414.73 71.4141V77H413.285V71.4062C413.279 70.7969 413.139 70.3464 412.863 70.0547C412.592 69.763 412.167 69.6172 411.589 69.6172C411.121 69.6172 410.709 69.7422 410.355 69.9922C410.001 70.2422 409.725 70.5703 409.527 70.9766V77H408.082V68.5469H409.449ZM422.128 77C422.045 76.8333 421.977 76.5365 421.925 76.1094C421.253 76.8073 420.451 77.1562 419.519 77.1562C418.686 77.1562 418.001 76.9219 417.464 76.4531C416.933 75.9792 416.667 75.3802 416.667 74.6562C416.667 73.776 417.001 73.0938 417.667 72.6094C418.339 72.1198 419.282 71.875 420.496 71.875H421.902V71.2109C421.902 70.7057 421.751 70.3047 421.449 70.0078C421.147 69.7057 420.701 69.5547 420.113 69.5547C419.597 69.5547 419.165 69.6849 418.816 69.9453C418.467 70.2057 418.292 70.5208 418.292 70.8906H416.839C416.839 70.4688 416.988 70.0625 417.285 69.6719C417.587 69.276 417.993 68.9635 418.503 68.7344C419.019 68.5052 419.584 68.3906 420.199 68.3906C421.173 68.3906 421.936 68.6354 422.488 69.125C423.04 69.6094 423.326 70.2786 423.347 71.1328V75.0234C423.347 75.7995 423.446 76.4167 423.644 76.875V77H422.128ZM419.73 75.8984C420.183 75.8984 420.613 75.7812 421.019 75.5469C421.425 75.3125 421.72 75.0078 421.902 74.6328V72.8984H420.769C418.998 72.8984 418.113 73.4167 418.113 74.4531C418.113 74.9062 418.264 75.2604 418.566 75.5156C418.868 75.7708 419.256 75.8984 419.73 75.8984ZM425.269 72.7031C425.269 71.3854 425.574 70.3385 426.183 69.5625C426.792 68.7812 427.6 68.3906 428.605 68.3906C429.636 68.3906 430.441 68.7552 431.019 69.4844L431.089 68.5469H432.41V76.7969C432.41 77.8906 432.084 78.7526 431.433 79.3828C430.787 80.013 429.917 80.3281 428.824 80.3281C428.214 80.3281 427.618 80.1979 427.035 79.9375C426.451 79.6771 426.006 79.3203 425.699 78.8672L426.449 78C427.069 78.7656 427.826 79.1484 428.722 79.1484C429.425 79.1484 429.972 78.9505 430.363 78.5547C430.759 78.1589 430.957 77.6016 430.957 76.8828V76.1562C430.378 76.8229 429.589 77.1562 428.589 77.1562C427.6 77.1562 426.798 76.7578 426.183 75.9609C425.574 75.1641 425.269 74.0781 425.269 72.7031ZM426.722 72.8672C426.722 73.8203 426.917 74.5703 427.308 75.1172C427.699 75.6589 428.246 75.9297 428.949 75.9297C429.86 75.9297 430.529 75.5156 430.957 74.6875V70.8281C430.514 70.0208 429.85 69.6172 428.964 69.6172C428.261 69.6172 427.712 69.8906 427.316 70.4375C426.92 70.9844 426.722 71.7943 426.722 72.8672ZM438.105 77.1562C436.959 77.1562 436.027 76.7812 435.308 76.0312C434.589 75.276 434.23 74.2682 434.23 73.0078V72.7422C434.23 71.9036 434.389 71.1562 434.707 70.5C435.029 69.8385 435.477 69.3229 436.05 68.9531C436.628 68.5781 437.253 68.3906 437.925 68.3906C439.024 68.3906 439.878 68.7526 440.488 69.4766C441.097 70.2005 441.402 71.237 441.402 72.5859V73.1875H435.675C435.696 74.0208 435.938 74.6953 436.402 75.2109C436.871 75.7214 437.464 75.9766 438.183 75.9766C438.694 75.9766 439.126 75.8724 439.48 75.6641C439.834 75.4557 440.144 75.1797 440.41 74.8359L441.292 75.5234C440.584 76.612 439.522 77.1562 438.105 77.1562ZM437.925 69.5781C437.342 69.5781 436.852 69.7917 436.457 70.2188C436.061 70.6406 435.816 71.2344 435.722 72H439.957V71.8906C439.915 71.1562 439.717 70.5885 439.363 70.1875C439.009 69.7812 438.529 69.5781 437.925 69.5781ZM447.167 69.8438C446.949 69.8073 446.712 69.7891 446.457 69.7891C445.509 69.7891 444.865 70.1927 444.527 71V77H443.082V68.5469H444.488L444.511 69.5234C444.985 68.7682 445.657 68.3906 446.527 68.3906C446.808 68.3906 447.022 68.4271 447.167 68.5V69.8438Z" fill="#222222"/>
	<path d="M352.802 29.1637C359.588 18.5667 370.891 10.0545 384.849 5.02993C398.807 0.00534254 414.586 -1.23176 429.586 1.52251C444.586 4.27678 457.912 10.8581 467.367 20.1817C476.823 29.5053 481.843 41.0148 481.601 52.8135C481.359 64.6121 475.87 75.9956 466.037 85.088C456.205 94.1803 442.616 100.439 427.51 102.832C412.405 105.225 396.684 103.611 382.939 98.2539C369.194 92.8972 358.244 84.1182 351.896 73.3637L358.081 71.2273C363.795 80.9063 373.649 88.8075 386.019 93.6285C398.39 98.4496 412.539 99.9029 426.134 97.7489C439.729 95.595 451.959 89.9623 460.808 81.7792C469.658 73.596 474.598 63.3508 474.816 52.7321C475.033 42.1134 470.515 31.7548 462.005 23.3635C453.495 14.9722 441.502 9.04909 428.002 6.57025C414.502 4.0914 400.301 5.2048 387.739 9.72693C375.177 14.2491 365.004 21.9101 358.896 31.4473L352.802 29.1637Z" fill="#01DBDD"/>
	<path d="M364.363 51.736L341.863 65.1313L341.863 38.3408L364.363 51.736Z" fill="#01DBDD"/>
</svg>
