<svg width="209" height="209" viewBox="0 0 209 209" fill="none" xmlns="http://www.w3.org/2000/svg">
	<path d="M100.738 102.438C100.738 103.273 100.523 104.02 100.094 104.676C99.6638 105.324 99.0779 105.836 98.3357 106.211C99.2263 106.625 99.9099 107.191 100.386 107.91C100.871 108.629 101.113 109.441 101.113 110.348C101.113 111.848 100.605 113.039 99.5896 113.922C98.574 114.797 97.2224 115.234 95.5349 115.234C93.8396 115.234 92.4802 114.793 91.4568 113.91C90.4412 113.027 89.9333 111.84 89.9333 110.348C89.9333 109.434 90.1755 108.613 90.6599 107.887C91.1443 107.16 91.824 106.602 92.699 106.211C91.9646 105.836 91.3826 105.324 90.9529 104.676C90.531 104.02 90.3201 103.273 90.3201 102.438C90.3201 100.984 90.7888 99.832 91.7263 98.9805C92.6638 98.1289 93.9294 97.7031 95.5232 97.7031C97.1248 97.7031 98.3943 98.1289 99.3318 98.9805C100.269 99.832 100.738 100.984 100.738 102.438ZM98.2654 110.207C98.2654 109.363 98.0115 108.684 97.5037 108.168C97.0037 107.645 96.3396 107.383 95.5115 107.383C94.6833 107.383 94.0193 107.641 93.5193 108.156C93.0271 108.672 92.781 109.355 92.781 110.207C92.781 111.043 93.0232 111.711 93.5076 112.211C93.9998 112.711 94.6755 112.961 95.5349 112.961C96.3943 112.961 97.0623 112.719 97.5388 112.234C98.0232 111.75 98.2654 111.074 98.2654 110.207ZM97.9021 102.543C97.9021 101.801 97.6873 101.191 97.2576 100.715C96.8279 100.23 96.2498 99.9883 95.5232 99.9883C94.7966 99.9883 94.2224 100.219 93.8005 100.68C93.3787 101.133 93.1677 101.754 93.1677 102.543C93.1677 103.324 93.3787 103.945 93.8005 104.406C94.2302 104.867 94.8083 105.098 95.5349 105.098C96.2615 105.098 96.8357 104.867 97.2576 104.406C97.6873 103.945 97.9021 103.324 97.9021 102.543ZM114.754 107.816C114.754 110.27 114.293 112.121 113.371 113.371C112.457 114.613 111.062 115.234 109.187 115.234C107.344 115.234 105.953 114.629 105.015 113.418C104.086 112.199 103.609 110.398 103.586 108.016V105.062C103.586 102.609 104.043 100.77 104.957 99.543C105.879 98.3164 107.281 97.7031 109.164 97.7031C111.031 97.7031 112.422 98.3008 113.336 99.4961C114.258 100.691 114.73 102.48 114.754 104.863V107.816ZM111.906 104.629C111.906 103.027 111.687 101.855 111.25 101.113C110.812 100.363 110.117 99.9883 109.164 99.9883C108.234 99.9883 107.551 100.344 107.113 101.055C106.676 101.758 106.445 102.859 106.422 104.359V108.227C106.422 109.82 106.644 111.008 107.09 111.789C107.535 112.57 108.234 112.961 109.187 112.961C110.101 112.961 110.777 112.602 111.215 111.883C111.652 111.156 111.883 110.023 111.906 108.484V104.629ZM116.866 104.664C116.866 103.891 117.115 103.258 117.613 102.766C118.111 102.268 118.764 102.019 119.573 102.019C120.393 102.019 121.05 102.268 121.542 102.766C122.04 103.258 122.289 103.905 122.289 104.708V105.341C122.289 106.108 122.04 106.738 121.542 107.23C121.05 107.723 120.399 107.969 119.591 107.969C118.8 107.969 118.146 107.729 117.631 107.248C117.121 106.762 116.866 106.108 116.866 105.288V104.664ZM118.36 105.341C118.36 105.745 118.471 106.073 118.694 106.325C118.923 106.571 119.221 106.694 119.591 106.694C119.954 106.694 120.247 106.571 120.469 106.325C120.692 106.073 120.803 105.733 120.803 105.306V104.664C120.803 104.26 120.689 103.932 120.461 103.68C120.238 103.428 119.942 103.302 119.573 103.302C119.204 103.302 118.908 103.431 118.685 103.688C118.469 103.94 118.36 104.274 118.36 104.69V105.341ZM123.018 111.862C123.018 111.077 123.273 110.441 123.783 109.955C124.293 109.469 124.943 109.226 125.734 109.226C126.531 109.226 127.181 109.469 127.685 109.955C128.195 110.441 128.45 111.098 128.45 111.924V112.548C128.45 113.31 128.204 113.939 127.712 114.438C127.225 114.93 126.572 115.176 125.752 115.176C124.931 115.176 124.269 114.933 123.765 114.446C123.267 113.954 123.018 113.307 123.018 112.504V111.862ZM124.512 112.548C124.512 112.946 124.627 113.274 124.855 113.532C125.09 113.784 125.388 113.91 125.752 113.91C126.127 113.91 126.42 113.79 126.631 113.55C126.847 113.304 126.956 112.961 126.956 112.521V111.862C126.956 111.452 126.842 111.124 126.613 110.878C126.385 110.632 126.092 110.509 125.734 110.509C125.371 110.509 125.075 110.632 124.846 110.878C124.624 111.124 124.512 111.464 124.512 111.897V112.548ZM120.03 114.042L118.931 113.409L125.18 103.407L126.279 104.04L120.03 114.042Z" fill="#02B421"/>
	<path d="M45.0206 121.68C42.3142 112.357 41.8527 102.525 43.674 92.9892C45.4953 83.4532 49.5477 74.4837 55.4997 66.8139C61.4517 59.1442 69.1345 52.992 77.9197 48.8604C86.705 44.7287 96.3434 42.735 106.047 43.0421L105.463 61.4885C98.6706 61.2735 91.9237 62.6692 85.774 65.5613C79.6243 68.4535 74.2464 72.76 70.08 78.1288C65.9136 83.4976 63.077 89.7763 61.8021 96.4515C60.5271 103.127 60.8501 110.009 62.7447 116.535L45.0206 121.68Z" fill="#00F02A"/>
	<path d="M106.039 43.0415C119.024 43.4508 131.546 47.9603 141.81 55.9238C152.075 63.8874 159.555 74.896 163.178 87.372C166.802 99.848 166.383 113.151 161.981 125.374C157.579 137.597 149.42 148.113 138.675 155.414C127.929 162.716 115.148 166.428 102.163 166.018C89.1776 165.609 76.6554 161.099 66.3908 153.136C56.1262 145.172 48.6462 134.164 45.0228 121.688C41.3994 109.212 41.8187 95.9089 46.2205 83.6858L63.5846 89.939C60.5033 98.4952 60.2098 107.807 62.7462 116.54C65.2825 125.274 70.5185 132.98 77.7037 138.554C84.889 144.129 93.6545 147.285 102.744 147.572C111.834 147.858 120.781 145.26 128.303 140.149C135.825 135.038 141.535 127.677 144.617 119.121C147.698 110.565 147.991 101.253 145.455 92.5194C142.919 83.7862 137.683 76.0801 130.497 70.5057C123.312 64.9312 114.547 61.7745 105.457 61.488L106.039 43.0415Z" fill="#02B421"/>
</svg>
