<svg width="51" height="65" viewBox="0 0 51 65" fill="none" xmlns="http://www.w3.org/2000/svg">
<path d="M35.5345 51.9848L35.7476 51.9982L35.5345 51.9848ZM31.3248 40.4965L31.4589 40.3304L31.3248 40.4965ZM25.7614 52.7601L25.5938 52.8924L25.7614 52.7601ZM42.1311 0.76364C42.0172 0.733031 41.9001 0.800504 41.8695 0.914346L41.3707 2.76951C41.3401 2.88335 41.4076 3.00045 41.5214 3.03106C41.6353 3.06167 41.7524 2.9942 41.783 2.88036L42.2264 1.23132L43.8754 1.67471C43.9892 1.70532 44.1063 1.63785 44.1369 1.52401C44.1676 1.41016 44.1001 1.29306 43.9862 1.26245L42.1311 0.76364ZM1.17677 61.1132C1.27679 61.1756 1.40845 61.145 1.47083 61.045C1.53321 60.945 1.50269 60.8133 1.40267 60.7509L1.17677 61.1132ZM3.64486 62.006C3.53933 61.9535 3.41119 61.9965 3.35866 62.102C3.30613 62.2075 3.3491 62.3357 3.45463 62.3882L3.64486 62.006ZM5.85442 63.4348C5.96476 63.4763 6.08785 63.4205 6.12936 63.3102C6.17086 63.1998 6.11507 63.0768 6.00473 63.0352L5.85442 63.4348ZM8.45357 63.8116C8.33946 63.782 8.22297 63.8505 8.19338 63.9647C8.1638 64.0788 8.23232 64.1953 8.34643 64.2249L8.45357 63.8116ZM10.9103 64.7437C11.0269 64.7608 11.1353 64.6801 11.1524 64.5635C11.1695 64.4468 11.0888 64.3384 10.9722 64.3213L10.9103 64.7437ZM13.5334 64.5561C13.4155 64.5517 13.3165 64.6436 13.312 64.7614C13.3076 64.8792 13.3995 64.9783 13.5173 64.9827L13.5334 64.5561ZM16.1325 64.942C16.2501 64.9339 16.3389 64.8321 16.3309 64.7145C16.3229 64.5968 16.221 64.508 16.1034 64.5161L16.1325 64.942ZM18.6554 64.2088C18.5392 64.2288 18.4613 64.3392 18.4814 64.4554C18.5014 64.5716 18.6118 64.6495 18.728 64.6295L18.6554 64.2088ZM21.28 64.0569C21.3937 64.0255 21.4603 63.9079 21.4288 63.7942C21.3974 63.6806 21.2798 63.614 21.1662 63.6455L21.28 64.0569ZM23.6111 62.8394C23.5011 62.8816 23.4461 63.0051 23.4883 63.1151C23.5306 63.2252 23.6541 63.2802 23.7641 63.2379L23.6111 62.8394ZM26.1579 62.185C26.2634 62.1324 26.3063 62.0043 26.2537 61.8988C26.2012 61.7933 26.073 61.7503 25.9675 61.8029L26.1579 62.185ZM28.2123 60.5449C28.1124 60.6075 28.0822 60.7393 28.1449 60.8391C28.2075 60.939 28.3392 60.9692 28.4391 60.9066L28.2123 60.5449ZM30.5792 59.4046C30.6719 59.3318 30.6881 59.1976 30.6153 59.1049C30.5425 59.0122 30.4083 58.996 30.3156 59.0688L30.5792 59.4046ZM32.2386 57.3632C32.1556 57.447 32.1562 57.5821 32.24 57.6651C32.3237 57.7481 32.4588 57.7475 32.5418 57.6637L32.2386 57.3632ZM34.238 55.6604C34.3058 55.564 34.2827 55.4308 34.1863 55.363C34.0899 55.2951 33.9568 55.3182 33.8889 55.4146L34.238 55.6604ZM35.0697 53.1821C35.032 53.2938 35.092 53.4149 35.2037 53.4526C35.3154 53.4903 35.4365 53.4303 35.4742 53.3186L35.0697 53.1821ZM35.803 50.9151C35.8076 50.7973 35.7157 50.6982 35.5979 50.6936C35.4801 50.6891 35.381 50.7809 35.3764 50.8987L35.803 50.9151ZM35.3863 48.7618C35.3906 48.8796 35.4896 48.9716 35.6074 48.9673C35.7252 48.9629 35.8172 48.8639 35.8129 48.7461L35.3863 48.7618ZM35.5978 46.5749C35.5773 46.4588 35.4666 46.3813 35.3505 46.4018C35.2344 46.4223 35.1569 46.533 35.1774 46.6491L35.5978 46.5749ZM34.589 44.6352C34.6361 44.7433 34.7619 44.7927 34.87 44.7456C34.978 44.6985 35.0275 44.5727 34.9804 44.4647L34.589 44.6352ZM33.8262 42.5865C33.7518 42.495 33.6174 42.4813 33.526 42.5557C33.4345 42.6301 33.4208 42.7646 33.4952 42.856L33.8262 42.5865ZM32.0103 41.3495C32.099 41.4273 32.2338 41.4184 32.3116 41.3298C32.3893 41.2411 32.3804 41.1063 32.2918 41.0286L32.0103 41.3495ZM30.2924 39.7233C30.1798 39.6887 30.0603 39.7519 30.0257 39.8646C29.991 39.9773 30.0542 40.0967 30.1669 40.1314L30.2924 39.7233ZM27.8149 40.0622C27.9305 40.0391 28.0055 39.9267 27.9824 39.8111C27.9593 39.6954 27.8468 39.6205 27.7312 39.6436L27.8149 40.0622ZM25.3719 40.6104C25.2732 40.6748 25.2454 40.8071 25.3098 40.9058C25.3742 41.0046 25.5064 41.0324 25.6052 40.968L25.3719 40.6104ZM23.9099 42.6363C23.975 42.538 23.948 42.4056 23.8497 42.3405C23.7514 42.2755 23.6189 42.3025 23.5539 42.4008L23.9099 42.6363ZM22.6408 44.7874C22.6232 44.9039 22.7034 45.0127 22.8199 45.0303C22.9365 45.048 23.0453 44.9678 23.0629 44.8512L22.6408 44.7874ZM23.1533 47.2396C23.1293 47.1242 23.0162 47.0501 22.9008 47.0742C22.7854 47.0982 22.7113 47.2113 22.7354 47.3267L23.1533 47.2396ZM23.5647 49.7126C23.6157 49.8189 23.7432 49.8638 23.8495 49.8128C23.9558 49.7619 24.0006 49.6344 23.9497 49.5281L23.5647 49.7126ZM25.1947 51.6397C25.1274 51.5429 24.9943 51.519 24.8976 51.5864C24.8008 51.6537 24.7769 51.7867 24.8442 51.8835L25.1947 51.6397ZM26.5078 53.8352C26.5982 53.9109 26.7328 53.899 26.8085 53.8087C26.8842 53.7183 26.8723 53.5837 26.7819 53.508L26.5078 53.8352ZM28.9288 54.6553C28.816 54.6212 28.6969 54.6851 28.6627 54.7979C28.6286 54.9107 28.6925 55.0299 28.8053 55.064L28.9288 54.6553ZM31.3783 55.3907C31.4962 55.3879 31.5894 55.29 31.5865 55.1721C31.5836 55.0543 31.4857 54.9611 31.3678 54.964L31.3783 55.3907ZM33.8264 54.6019C33.7123 54.6317 33.644 54.7483 33.6739 54.8624C33.7037 54.9764 33.8203 55.0447 33.9344 55.0149L33.8264 54.6019ZM36.3612 54.1369C36.4683 54.0876 36.5151 53.9609 36.4658 53.8538C36.4165 53.7467 36.2898 53.6999 36.1827 53.7492L36.3612 54.1369ZM38.3693 52.5423C38.2702 52.6062 38.2418 52.7383 38.3057 52.8374C38.3696 52.9364 38.5017 52.9649 38.6008 52.901L38.3693 52.5423ZM40.6696 51.3752C40.7601 51.2996 40.7722 51.165 40.6967 51.0745C40.6212 50.984 40.4866 50.9718 40.3961 51.0474L40.6696 51.3752ZM42.2292 49.3368C42.1475 49.4218 42.1501 49.5569 42.235 49.6386C42.32 49.7204 42.4551 49.7178 42.5368 49.6329L42.2292 49.3368ZM44.2166 47.6987C44.2894 47.606 44.2732 47.4718 44.1804 47.399C44.0877 47.3263 43.9535 47.3425 43.8807 47.4353L44.2166 47.6987ZM45.3406 45.3777C45.277 45.4769 45.3059 45.609 45.4051 45.6726C45.5044 45.7362 45.6364 45.7073 45.7 45.608L45.3406 45.3777ZM46.9774 43.3995C47.0318 43.2949 46.9911 43.166 46.8865 43.1116C46.7819 43.0572 46.653 43.0979 46.5986 43.2025L46.9774 43.3995ZM47.6615 40.9213C47.6163 41.0302 47.668 41.155 47.7769 41.2002C47.8858 41.2453 48.0107 41.1936 48.0558 41.0847L47.6615 40.9213ZM48.9346 38.6862C48.9706 38.5739 48.9087 38.4538 48.7965 38.4178C48.6842 38.3818 48.564 38.4437 48.5281 38.556L48.9346 38.6862ZM49.2001 36.1268C49.1732 36.2416 49.2444 36.3565 49.3591 36.3834C49.4739 36.4103 49.5888 36.3391 49.6157 36.2243L49.2001 36.1268ZM50.1033 33.7179C50.1214 33.6014 50.0417 33.4923 49.9252 33.4741C49.8088 33.456 49.6996 33.5357 49.6815 33.6522L50.1033 33.7179ZM49.9784 31.1483C49.9687 31.2658 50.0561 31.3689 50.1736 31.3786C50.2911 31.3883 50.3942 31.3009 50.4039 31.1834L49.9784 31.1483ZM50.5255 28.635C50.5271 28.5171 50.4328 28.4203 50.315 28.4186C50.1971 28.417 50.1002 28.5113 50.0986 28.6291L50.5255 28.635ZM50.0511 26.106C50.057 26.2237 50.1573 26.3143 50.2751 26.3083C50.3928 26.3023 50.4834 26.202 50.4774 26.0843L50.0511 26.106ZM50.2695 23.5399C50.2564 23.4227 50.1508 23.3384 50.0336 23.3515C49.9165 23.3646 49.8322 23.4703 49.8453 23.5874L50.2695 23.5399ZM49.4907 21.0793C49.5105 21.1955 49.6207 21.2737 49.7369 21.2539C49.8531 21.2341 49.9313 21.1238 49.9115 21.0076L49.4907 21.0793ZM49.4158 18.5059C49.3899 18.3909 49.2756 18.3187 49.1606 18.3447C49.0456 18.3706 48.9734 18.4849 48.9994 18.5999L49.4158 18.5059ZM48.3846 16.1611C48.4162 16.2747 48.5338 16.3411 48.6474 16.3095C48.761 16.2779 48.8274 16.1602 48.7958 16.0466L48.3846 16.1611ZM48.0563 13.6116C48.0195 13.4996 47.8989 13.4387 47.7869 13.4755C47.6749 13.5124 47.614 13.633 47.6508 13.745L48.0563 13.6116ZM46.8039 11.3487C46.8456 11.459 46.9687 11.5146 47.079 11.473C47.1893 11.4313 47.2449 11.3081 47.2033 11.1979L46.8039 11.3487ZM46.2573 8.83993C46.2112 8.73142 46.0859 8.68079 45.9774 8.72685C45.8689 8.77291 45.8182 8.89822 45.8643 9.00673L46.2573 8.83993ZM44.8361 6.70646C44.8862 6.81318 45.0133 6.85908 45.12 6.80899C45.2267 6.75889 45.2726 6.63178 45.2225 6.52506L44.8361 6.70646ZM44.0917 4.22398C44.0379 4.1191 43.9093 4.07773 43.8044 4.13156C43.6995 4.18539 43.6581 4.31405 43.712 4.41893L44.0917 4.22398ZM42.5265 2.20023C42.5837 2.30329 42.7137 2.34046 42.8167 2.28323C42.9198 2.22601 42.957 2.09607 42.8997 1.99301L42.5265 2.20023ZM0.0776037 60.3922C0.443272 60.6441 0.809726 60.8843 1.17677 61.1132L1.40267 60.7509C1.04117 60.5255 0.680132 60.2888 0.31976 60.0406L0.0776037 60.3922ZM3.45463 62.3882C4.25453 62.7863 5.05514 63.1341 5.85442 63.4348L6.00473 63.0352C5.21909 62.7397 4.43179 62.3977 3.64486 62.006L3.45463 62.3882ZM8.34643 64.2249C9.20615 64.4478 10.0616 64.6193 10.9103 64.7437L10.9722 64.3213C10.1386 64.1991 9.29818 64.0306 8.45357 63.8116L8.34643 64.2249ZM13.5173 64.9827C14.401 65.0159 15.2738 65.0007 16.1325 64.942L16.1034 64.5161C15.2593 64.5738 14.4016 64.5888 13.5334 64.5561L13.5173 64.9827ZM18.728 64.6295C19.599 64.4792 20.4509 64.2864 21.28 64.0569L21.1662 63.6455C20.3502 63.8713 19.5121 64.061 18.6554 64.2088L18.728 64.6295ZM23.7641 63.2379C24.5935 62.9195 25.3928 62.5662 26.1579 62.185L25.9675 61.8029C25.2144 62.1781 24.4275 62.5259 23.6111 62.8394L23.7641 63.2379ZM28.4391 60.9066C29.202 60.4281 29.9174 59.9243 30.5792 59.4046L30.3156 59.0688C29.6658 59.5791 28.9627 60.0743 28.2123 60.5449L28.4391 60.9066ZM32.5418 57.6637C33.1999 56.9996 33.7692 56.3261 34.238 55.6604L33.8889 55.4146C33.4355 56.0585 32.882 56.7139 32.2386 57.3632L32.5418 57.6637ZM35.4742 53.3186C35.6276 52.864 35.721 52.4214 35.7476 51.9982L35.3215 51.9714C35.2976 52.3512 35.2132 52.7567 35.0697 53.1821L35.4742 53.3186ZM35.7476 51.9982C35.7711 51.6231 35.7897 51.2624 35.803 50.9151L35.3764 50.8987C35.3632 51.2422 35.3449 51.5994 35.3215 51.9714L35.7476 51.9982ZM35.8129 48.7461C35.7835 47.9437 35.7127 47.2263 35.5978 46.5749L35.1774 46.6491C35.2883 47.2774 35.3574 47.9748 35.3863 48.7618L35.8129 48.7461ZM34.9804 44.4647C34.6794 43.7739 34.2958 43.1633 33.8262 42.5865L33.4952 42.856C33.9426 43.4056 34.305 43.9833 34.589 44.6352L34.9804 44.4647ZM32.2918 41.0286C32.0295 40.7986 31.7519 40.567 31.4589 40.3304L31.1907 40.6626C31.4804 40.8964 31.7534 41.1243 32.0103 41.3495L32.2918 41.0286ZM31.4589 40.3304C31.1201 40.0568 30.7236 39.856 30.2924 39.7233L30.1669 40.1314C30.5528 40.2501 30.8993 40.4273 31.1907 40.6626L31.4589 40.3304ZM27.7312 39.6436C26.9223 39.8052 26.1076 40.1306 25.3719 40.6104L25.6052 40.968C26.2948 40.5181 27.0587 40.2133 27.8149 40.0622L27.7312 39.6436ZM23.5539 42.4008C23.1021 43.0838 22.7777 43.8819 22.6408 44.7874L23.0629 44.8512C23.1903 44.009 23.4913 43.2692 23.9099 42.6363L23.5539 42.4008ZM22.7354 47.3267C22.8917 48.0766 23.1621 48.8727 23.5647 49.7126L23.9497 49.5281C23.5602 48.7158 23.3018 47.9523 23.1533 47.2396L22.7354 47.3267ZM24.8442 51.8835C25.0743 52.2142 25.3239 52.5505 25.5938 52.8924L25.9289 52.6279C25.664 52.2924 25.4196 51.963 25.1947 51.6397L24.8442 51.8835ZM25.5938 52.8924C25.8716 53.2442 26.1773 53.5584 26.5078 53.8352L26.7819 53.508C26.4741 53.2501 26.1887 52.957 25.9289 52.6279L25.5938 52.8924ZM28.8053 55.064C29.6067 55.3062 30.472 55.413 31.3783 55.3907L31.3678 54.964C30.5015 54.9853 29.6819 54.883 28.9288 54.6553L28.8053 55.064ZM33.9344 55.0149C34.732 54.8063 35.545 54.5127 36.3612 54.1369L36.1827 53.7492C35.3874 54.1153 34.598 54.4001 33.8264 54.6019L33.9344 55.0149ZM38.6008 52.901C39.2984 52.4509 39.9905 51.9418 40.6696 51.3752L40.3961 51.0474C39.73 51.6032 39.0518 52.1019 38.3693 52.5423L38.6008 52.901ZM42.5368 49.6329C43.1147 49.0325 43.6764 48.3874 44.2166 47.6987L43.8807 47.4353C43.3493 48.1127 42.797 48.7469 42.2292 49.3368L42.5368 49.6329ZM45.7 45.608C46.1493 44.9069 46.5765 44.1704 46.9774 43.3995L46.5986 43.2025C46.2036 43.9621 45.7829 44.6874 45.3406 45.3777L45.7 45.608ZM48.0558 41.0847C48.3755 40.3137 48.6695 39.514 48.9346 38.6862L48.5281 38.556C48.2665 39.3725 47.9766 40.1611 47.6615 40.9213L48.0558 41.0847ZM49.6157 36.2243C49.8063 35.412 49.9696 34.5764 50.1033 33.7179L49.6815 33.6522C49.5495 34.5 49.3882 35.3251 49.2001 36.1268L49.6157 36.2243ZM50.4039 31.1834C50.4723 30.3527 50.5135 29.5032 50.5255 28.635L50.0986 28.6291C50.0868 29.4876 50.046 30.3275 49.9784 31.1483L50.4039 31.1834ZM50.4774 26.0843C50.4351 25.2515 50.3663 24.4033 50.2695 23.5399L49.8453 23.5874C49.9411 24.4423 50.0092 25.2819 50.0511 26.106L50.4774 26.0843ZM49.9115 21.0076C49.7716 20.1862 49.6068 19.3523 49.4158 18.5059L48.9994 18.5999C49.1887 19.4389 49.3521 20.2655 49.4907 21.0793L49.9115 21.0076ZM48.7958 16.0466C48.5728 15.2452 48.3266 14.4335 48.0563 13.6116L47.6508 13.745C47.9191 14.5607 48.1633 15.3661 48.3846 16.1611L48.7958 16.0466ZM47.2033 11.1979C46.9095 10.4203 46.5945 9.63431 46.2573 8.83993L45.8643 9.00673C46.1993 9.79593 46.5122 10.5766 46.8039 11.3487L47.2033 11.1979ZM45.2225 6.52506C44.8659 5.76523 44.4891 4.99816 44.0917 4.22398L43.712 4.41893C44.1071 5.18871 44.4816 5.95126 44.8361 6.70646L45.2225 6.52506ZM42.8997 1.99301C42.6915 1.61799 42.4785 1.24139 42.2606 0.863205L41.8907 1.07633C42.1075 1.45257 42.3194 1.82721 42.5265 2.20023L42.8997 1.99301Z" fill="#003A9B"/>
</svg>
